STARTFONT 2.1
COMMENT
COMMENT Converted from OpenType font "Overlock-Bold.ttf" by "otf2bdf 3.0".
COMMENT
FONT -FreeType-Overlock-Bold-R-Normal--55-400-100-100-P-249-ISO10646-1
SIZE 40 100 100
FONTBOUNDINGBOX 72 66 -7 -14
STARTPROPERTIES 19
FOUNDRY "FreeType"
FAMILY_NAME "Overlock"
WEIGHT_NAME "Bold"
SLANT "R"
SETWIDTH_NAME "Normal"
ADD_STYLE_NAME ""
PIXEL_SIZE 55
POINT_SIZE 400
RESOLUTION_X 100
RESOLUTION_Y 100
SPACING "P"
AVERAGE_WIDTH 249
CHARSET_REGISTRY "ISO10646"
CHARSET_ENCODING "1"
FONT_ASCENT 54
FONT_DESCENT 14
COPYRIGHT "Copyright (c) 2011, Dario Manuel Muhafara (http://www.tipo.net.ar), with Reserved Font Name "Overlock"."
_OTF_FONTFILE "Overlock-Bold.ttf"
_OTF_PSNAME "Overlock-Bold"
ENDPROPERTIES
CHARS 259
STARTCHAR 0020
ENCODING 32
SWIDTH 216 0
DWIDTH 12 0
BBX 0 0 0 0
BITMAP
ENDCHAR
STARTCHAR 0021
ENCODING 33
SWIDTH 306 0
DWIDTH 17 0
BBX 8 40 5 -1
BITMAP
FC
FE
FE
FE
FE
FE
FE
7E
7E
7E
7E
7C
7C
7C
7C
7C
7C
7C
7C
7C
7C
7C
7C
7C
7E
7E
1C
00
00
00
00
00
7E
FE
FF
FF
FF
FE
7E
10
ENDCHAR
STARTCHAR 0022
ENCODING 34
SWIDTH 396 0
DWIDTH 22 0
BBX 18 15 2 26
BITMAP
7C0F80
FE0FC0
FE1FC0
FE0FC0
7E0FC0
7E0FC0
7E0FC0
7E0FC0
7E0FC0
7C0FC0
7C0F80
7C0F80
7C0F80
780F80
300600
ENDCHAR
STARTCHAR 0023
ENCODING 35
SWIDTH 540 0
DWIDTH 30 0
BBX 30 33 0 2
BITMAP
00380E00
003C0F00
003C0F00
003C0F00
003C0F00
003C0F00
00780E00
00781E00
00781E00
0FFFFFFC
3FFFFFFC
7FFFFFFC
7FFFFFFC
7C701C50
00701C00
00F03C00
00F03C00
00F03C00
00E03800
00E03818
7FFFFFF8
FFFFFFF8
FFFFFFF8
FFFFFFF0
C1E07800
01C07800
01C07000
01C07000
03C07000
03C0F000
03C0F000
03C0F000
03C07000
ENDCHAR
STARTCHAR 0024
ENCODING 36
SWIDTH 540 0
DWIDTH 30 0
BBX 25 45 2 -4
BITMAP
001C0000
001C0000
001C0000
001F0000
01FFF000
07FFFC00
0FFFFF00
1FFFFF00
3F9C7F00
3E1C3F00
7E1C1F00
7C1C0E00
7C1C0800
7C1C0000
7C1C0000
7E1C0000
7F1C0000
7F9C0000
3FFC0000
3FFE0000
1FFFC000
0FFFF800
07FFFC00
03FFFE00
00FFFF00
001FFF00
001DFF80
001C7F80
001C1F80
001C0F80
001C0F80
001C0F80
201C0F80
701C0F80
F81C1F80
FE1C3F00
FF9CFF00
FFFFFE00
7FFFFC00
1FFFF000
07FFC000
001C0000
001C0000
001C0000
001E0000
ENDCHAR
STARTCHAR 0025
ENCODING 37
SWIDTH 828 0
DWIDTH 46 0
BBX 42 41 2 -2
BITMAP
000000018000
00000003E000
07F80007E000
0FFE0007C000
1FFF000FC000
3F3F000F8000
7E1F801F8000
7C0F803F0000
7C0F803E0000
FC0FC07E0000
FC0FC07C0000
FC0FC0F80000
FC0FC1F80000
7C0FC1F00000
7C0F83F00000
7E1F87E00000
3E1F87C00000
3FFF0FC00000
1FFE0F800000
0FFC1F000000
01E03F000000
00003E07F800
00007C1FFE00
0000FC3FFE00
0000F87E3F00
0001F87C1F80
0003F07C1F80
0003E0FC0F80
0007E0F80F80
0007C0F80FC0
000F80F80FC0
001F80FC0F80
001F00FC0F80
003F007C0F80
007E007E1F80
007C007E3F00
00FC003FFF00
00F8001FFE00
01F8000FF800
00F00001C000
002000000000
ENDCHAR
STARTCHAR 0026
ENCODING 38
SWIDTH 630 0
DWIDTH 35 0
BBX 32 39 2 -1
BITMAP
003E0000
01FFC000
03FFE000
0FFFF000
0FC3F800
1F81F800
1F00F800
1F00F800
3F00F800
3F00F800
1F00F800
1F81F800
1F81F000
1F83E000
0FCFC000
0FFF8000
07FF0000
03FE0000
03F80000
07F80000
0FFC0000
1FFE0380
3F7F07E0
3F3F03E0
7E1F83E0
7E1FC3E0
FC0FE3E0
FC07F3E0
FC03FFE0
FC01FFE0
7E00FFC0
7E00FFC0
7F007FE0
3F803FF8
3FFBFFFF
0FFFFFFF
07FFFBFF
01FFE1FE
000E0030
ENDCHAR
STARTCHAR 0027
ENCODING 39
SWIDTH 270 0
DWIDTH 15 0
BBX 7 15 3 26
BITMAP
7C
FC
FE
FE
FC
FC
FC
FC
FC
7C
7C
7C
78
F8
30
ENDCHAR
STARTCHAR 0028
ENCODING 40
SWIDTH 360 0
DWIDTH 20 0
BBX 14 52 4 -11
BITMAP
0030
007C
00F8
01F0
03F0
03E0
07C0
07C0
0FC0
0F80
1F80
1F00
1F00
3F00
3F00
3E00
7E00
7E00
7E00
7E00
7C00
FC00
FC00
FC00
FC00
FC00
FC00
FC00
FC00
FC00
FC00
7C00
7E00
7E00
7E00
7E00
3E00
3F00
3F00
1F00
1F00
1F80
0F80
0FC0
07C0
07C0
03E0
03F0
01F0
00F8
007C
0038
ENDCHAR
STARTCHAR 0029
ENCODING 41
SWIDTH 342 0
DWIDTH 19 0
BBX 14 52 1 -11
BITMAP
3000
F800
7C00
3E00
3F00
1F00
1F80
0F80
0FC0
07C0
07E0
03E0
03E0
03F0
03F0
01F0
01F8
01F8
01F8
01F8
00F8
00F8
00FC
00FC
00FC
00FC
00FC
00FC
00FC
00FC
00FC
00F8
01F8
01F8
01F8
01F8
01F0
01F0
03F0
03E0
03E0
07E0
07C0
07C0
0F80
0F80
1F00
1F00
3E00
7E00
FC00
7800
ENDCHAR
STARTCHAR 002A
ENCODING 42
SWIDTH 432 0
DWIDTH 24 0
BBX 19 20 2 22
BITMAP
00C000
01F000
01F800
01F800
01F8C0
79F9E0
7EF7E0
FFFFE0
FFFFE0
3FFFC0
07FF00
01F800
07FC00
0FFE00
1FBF00
3F9F80
3F1FE0
3F0FC0
1E0780
040000
ENDCHAR
STARTCHAR 002B
ENCODING 43
SWIDTH 540 0
DWIDTH 30 0
BBX 26 26 2 1
BITMAP
003E0000
003F0000
003F0000
003F0000
003F0000
003F0000
003F0000
003F0000
003F0000
003F0000
3C3E01C0
7FFFFFC0
FFFFFFC0
FFFFFFC0
FFFFFF80
003E0000
003E0000
003E0000
003E0000
003F0000
003F0000
003F0000
003F0000
003F0000
003F0000
000E0000
ENDCHAR
STARTCHAR 002C
ENCODING 44
SWIDTH 252 0
DWIDTH 14 0
BBX 10 16 1 -9
BITMAP
0E00
3F00
3F80
7FC0
3FC0
3FC0
0FC0
07C0
07C0
0780
0F80
1F00
7F00
FE00
FC00
6000
ENDCHAR
STARTCHAR 002D
ENCODING 45
SWIDTH 270 0
DWIDTH 15 0
BBX 13 5 1 12
BITMAP
7FF8
7FF8
FFF8
FFF8
6020
ENDCHAR
STARTCHAR 002E
ENCODING 46
SWIDTH 234 0
DWIDTH 13 0
BBX 8 8 2 -1
BITMAP
3E
7F
FF
FF
FF
7F
3E
08
ENDCHAR
STARTCHAR 002F
ENCODING 47
SWIDTH 270 0
DWIDTH 15 0
BBX 11 49 2 -7
BITMAP
00C0
01E0
01E0
01E0
01E0
03E0
03C0
03C0
03C0
03C0
03C0
03C0
0380
0780
0780
0780
0780
0780
0700
0F00
0F00
0F00
0F00
0F00
0F00
1E00
1E00
1E00
1E00
1E00
1E00
3C00
3C00
3C00
3C00
3C00
3C00
3C00
7800
7800
7800
7800
7800
7800
F800
F000
F000
F000
2000
ENDCHAR
STARTCHAR 0030
ENCODING 48
SWIDTH 540 0
DWIDTH 30 0
BBX 28 39 1 -1
BITMAP
000F0000
007FF000
01FFF800
03FFFE00
07FDFF00
0FE07F00
1FC03F80
1F801FC0
3F800FC0
3F000FC0
3F000FE0
7E0007E0
7E0007E0
7E0007F0
7E0003F0
7E0003F0
FC0003F0
FC0003F0
FC0003F0
FC0003F0
FE0003F0
FE0003F0
7E0003F0
7E0003F0
7E0003F0
7E0003F0
7E0007E0
7F0007E0
3F0007E0
3F800FC0
3F800FC0
1FC01F80
0FC03F80
0FE07F00
07FFFE00
03FFFC00
01FFF800
007FE000
00020000
ENDCHAR
STARTCHAR 0031
ENCODING 49
SWIDTH 540 0
DWIDTH 30 0
BBX 19 38 6 0
BITMAP
00F000
3FF800
7FF800
FFF800
FFF800
E1F800
01F800
01F800
01F800
01F800
01F800
01F800
01F800
01F800
01F800
01F800
01F800
01F800
01F800
01F800
01F800
01F800
01F800
01F800
01F800
01F800
01F800
01F800
01F800
01F800
01F800
01F800
01F800
01F800
3FFFE0
7FFFE0
7FFFE0
7FFFE0
ENDCHAR
STARTCHAR 0032
ENCODING 50
SWIDTH 540 0
DWIDTH 30 0
BBX 26 38 2 0
BITMAP
003E0000
01FFC000
07FFF000
1FFFF800
3FFFFC00
7F01FE00
7E00FE00
78007F00
30003F00
00003F00
00003F00
00003F00
00003F00
00003F00
00003F00
00007E00
00007E00
0000FC00
0000FC00
0001F800
0003F800
0003F000
0007E000
000FC000
001F8000
003F0000
007E0000
00FC0000
01F80000
03F00000
07E00000
0FC00000
1F000080
7E001FC0
FFFFFFC0
FFFFFFC0
FFFFFF80
7FFFFF00
ENDCHAR
STARTCHAR 0033
ENCODING 51
SWIDTH 540 0
DWIDTH 30 0
BBX 23 39 3 -1
BITMAP
007C00
03FF80
0FFFE0
3FFFF0
7FFFF0
7E07F8
7C03F8
7801FC
3001FC
0000FC
0000FC
0001F8
0001F8
0003F0
0007F0
000FE0
00FF80
07FF00
07FF80
07FFE0
001FF0
0007F8
0001FC
0000FC
0000FE
00007E
00007E
00007E
00007E
0000FE
0000FC
0001FC
2003F8
F007F8
FFFFF0
FFFFE0
7FFFC0
3FFE00
00C000
ENDCHAR
STARTCHAR 0034
ENCODING 52
SWIDTH 540 0
DWIDTH 30 0
BBX 28 39 2 -1
BITMAP
00003C00
0000FC00
0001FC00
0003FC00
0007FC00
000FFC00
001FFC00
003FFC00
003FFC00
007EFC00
00FCFC00
01F8FC00
01F0FC00
03F0FC00
07E0FC00
07C0FC00
0FC0FC00
1F80FC00
3F00FC00
3F00FC00
7E00FC00
7C00FC20
FFFFFFF0
FFFFFFF0
FFFFFFF0
FFFFFFE0
07FFFF80
0000FC00
0000FC00
0000FC00
0000FC00
0000FC00
0000FC00
0000FC00
0000FC00
0000FC00
0000FC00
00007E00
00003000
ENDCHAR
STARTCHAR 0035
ENCODING 53
SWIDTH 540 0
DWIDTH 30 0
BBX 23 39 3 -1
BITMAP
000004
1FFFFC
1FFFFC
1FFFFC
1FFFFC
1FFFF0
1F0000
1F0000
1E0000
1E0000
1E0000
1E0000
1E0000
1E0000
3FFF00
3FFFC0
1FFFF0
1FFFF8
000FF8
0003FC
0001FC
0000FE
0000FE
00007E
00007E
00007E
00007E
00007E
00007E
0000FE
0000FC
0001FC
2003F8
7007F0
FFFFF0
FFFFE0
7FFF80
3FFE00
00C000
ENDCHAR
STARTCHAR 0036
ENCODING 54
SWIDTH 540 0
DWIDTH 30 0
BBX 25 39 3 -1
BITMAP
0000F000
0007F800
003FF800
007FF800
00FFF800
03FC0000
03F00000
07E00000
0FC00000
1F800000
1F800000
3F000000
3F000000
3E000000
7E000000
7E000000
7E3FE000
FCFFF000
FDFFFC00
FFFFFC00
FF81FE00
FF007F00
FE007F00
FC003F00
FC003F00
FC003F80
FC003F80
FC003F00
7E003F00
7E003F00
7E003F00
3F007E00
3F007E00
3FC0FC00
1FFFF800
0FFFF800
07FFE000
01FFC000
00080000
ENDCHAR
STARTCHAR 0037
ENCODING 55
SWIDTH 540 0
DWIDTH 30 0
BBX 24 39 3 -1
BITMAP
800000
FFFFFF
FFFFFF
FFFFFF
FFFFFF
7FFFFF
00003F
00007E
00007E
00007C
0000FC
0000F8
0001F8
0001F0
0003F0
0003E0
0007E0
0007C0
000FC0
000F80
001F80
003F00
003F00
007E00
007E00
00FC00
00FC00
01F800
03F800
03F000
07E000
0FE000
1FC000
1FC000
3F8000
7F8000
FF0000
3E0000
080000
ENDCHAR
STARTCHAR 0038
ENCODING 56
SWIDTH 540 0
DWIDTH 30 0
BBX 25 39 3 -1
BITMAP
007E0000
03FFC000
0FFFF000
1FFFF800
3FFFFC00
3F80FC00
7E007E00
7E007E00
7E007E00
7E007E00
7E007E00
3F007E00
3F00FC00
3F80FC00
1FE1F800
0FF7E000
07FFC000
01FFC000
03FFE000
0FFFF800
1FCFFC00
3F03FE00
7E00FE00
7E007F00
FC003F00
FC003F00
FC003F80
FC001F80
FC001F80
FC003F80
FC003F00
FC003F00
7E007F00
7F00FE00
3FFFFC00
1FFFF800
0FFFF000
03FFC000
003C0000
ENDCHAR
STARTCHAR 0039
ENCODING 57
SWIDTH 540 0
DWIDTH 30 0
BBX 24 39 3 -1
BITMAP
003C00
03FF80
07FFE0
1FFFF0
1FFFF8
3F01FC
7E00FC
7E00FE
FC007E
FC007E
FC007F
FC003F
FC003F
FC003F
FC003F
FC003F
FE007F
7F00FF
7F83FF
3FFFFF
1FFFBF
0FFF3F
03FC3E
00007E
00007E
00007E
0000FC
0000FC
0001F8
0001F8
0003F0
0007E0
000FC0
003F80
1FFF00
1FFE00
1FF800
1FE000
040000
ENDCHAR
STARTCHAR 003A
ENCODING 58
SWIDTH 234 0
DWIDTH 13 0
BBX 8 28 2 -1
BITMAP
3E
7F
7F
FF
FF
7F
7F
3E
00
00
00
00
00
00
00
00
00
00
00
1C
7F
7F
FF
FF
FF
7F
3E
08
ENDCHAR
STARTCHAR 003B
ENCODING 59
SWIDTH 270 0
DWIDTH 15 0
BBX 10 36 1 -9
BITMAP
0F00
1F80
3FC0
3FC0
3FC0
3FC0
3F80
1F00
0000
0000
0000
0000
0000
0000
0000
0000
0000
0000
0000
0000
0E00
3F00
3F80
7FC0
3FC0
3FC0
0FC0
07C0
07C0
0780
0F80
1F00
7F00
FE00
FC00
6000
ENDCHAR
STARTCHAR 003C
ENCODING 60
SWIDTH 540 0
DWIDTH 30 0
BBX 18 26 5 1
BITMAP
000700
000F80
001FC0
003F80
007F00
00FE00
01FC00
03F800
07E000
0FC000
1F8000
3F0000
FE0000
7E0000
3F0000
1F8000
0FC000
07F000
03F800
01FC00
00FE00
007F00
003F80
001FC0
000FC0
000700
ENDCHAR
STARTCHAR 003D
ENCODING 61
SWIDTH 540 0
DWIDTH 30 0
BBX 24 16 3 6
BITMAP
7FFFFE
7FFFFF
FFFFFF
FFFFFE
F8007C
000000
000000
000000
000000
000000
000000
7FFFFE
FFFFFF
FFFFFF
FFFFFE
78007C
ENDCHAR
STARTCHAR 003E
ENCODING 62
SWIDTH 540 0
DWIDTH 30 0
BBX 18 26 6 1
BITMAP
180000
7C0000
FE0000
7F0000
3F8000
0FE000
07F000
03F800
01FC00
00FE00
007F00
003F80
000FC0
001F80
003F80
007F00
00FE00
01FC00
03F800
07F000
0FE000
1FC000
7F8000
FF0000
7E0000
3C0000
ENDCHAR
STARTCHAR 003F
ENCODING 63
SWIDTH 396 0
DWIDTH 22 0
BBX 19 39 2 -1
BITMAP
0FFC00
3FFF00
7FFF80
FFFFC0
FE0FE0
F807E0
7807E0
3007E0
0007E0
0007E0
0007E0
000FC0
000FC0
001F80
003F80
007F00
00FC00
01F800
03F000
03F000
07E000
07E000
07E000
07E000
07E000
03F000
000000
000000
000000
000000
000000
03E000
07F000
07F800
07F800
07F800
07F000
03F000
00C000
ENDCHAR
STARTCHAR 0040
ENCODING 64
SWIDTH 864 0
DWIDTH 48 0
BBX 40 39 4 -6
BITMAP
00003FF000
0001FFFE00
0007FFFF80
001FFFFFE0
007FC01FF0
00FF0007F8
01FC0001F8
03F80000FC
07E03F00FC
07C1FFE07E
0FC3FFF87E
1F87FFF83E
1F0FEFF83E
3F0F81F83F
3E1F01F03F
3E1F01F03F
7E3E03F03E
7C3E03F03E
7C3E03F03E
FC3E03E03E
FC7E03E07C
FC7E03E07C
FC7E07E078
FC7E07E0F8
FC3F0FF1F0
FC3FBFF3E0
7C3FFCFFC0
7C1FF8FF80
7E0FF07E00
7E07C00000
3F00000000
3F80004000
1FC0007000
0FF000F800
07FE07F800
03FFFFF800
01FFFFF000
007FFFC000
000FFF0000
ENDCHAR
STARTCHAR 0041
ENCODING 65
SWIDTH 576 0
DWIDTH 32 0
BBX 33 38 0 -1
BITMAP
0003E00000
0007F00000
0007F00000
0007F80000
000FF80000
000FF80000
000FFC0000
001FFC0000
001F7C0000
001F7E0000
003E7E0000
003E3E0000
007E3F0000
007C3F0000
007C1F0000
00FC1F8000
00F81F8000
00F81F8000
01F80FC000
01F00FC000
03F007C000
03E007E000
03FFFFE000
07FFFFE000
07FFFFF000
0FFFFFF000
0F8001F800
1F8001F800
1F8001F800
1F0000FC00
3F0000FC00
3E0000FE00
7E00007E00
7E00007F00
7C00003F00
FC00003F80
FC00003F80
3800000C00
ENDCHAR
STARTCHAR 0042
ENCODING 66
SWIDTH 558 0
DWIDTH 31 0
BBX 26 39 3 -1
BITMAP
07F80000
FFFFC000
7FFFF000
7FFFFC00
7FFFFE00
7E01FE00
7E00FF00
7E007F00
7E003F00
7E003F00
7E003F00
7E003F00
7E003F00
7E007F00
7E00FE00
7E01FE00
7FFFFC00
7FFFF000
7FFFF800
7FFFFC00
7E01FE00
7E007F00
7E003F80
7E003F80
7E001F80
7E001FC0
7E001FC0
7E001FC0
7E001FC0
7E001F80
7C001F80
7C003F80
7E007F80
FF00FF00
FFFFFE00
7FFFFC00
1FFFF800
07FFE000
000C0000
ENDCHAR
STARTCHAR 0043
ENCODING 67
SWIDTH 612 0
DWIDTH 34 0
BBX 30 39 2 -1
BITMAP
0000F800
001FFF80
007FFFE0
00FFFFF0
03FFFFF8
07FC07F8
0FF001F8
0FE000F8
1FC000F8
3F800060
3F800000
3F000000
7F000000
7E000000
7E000000
7E000000
FE000000
FE000000
FE000000
FE000000
FE000000
FE000000
7E000000
7E000000
7E000000
7F000000
7F000000
3F800000
3F800000
1FC00010
1FC00038
0FE0007C
07F800FC
03FE03FC
01FFFFFC
00FFFFF8
007FFFE0
000FFF80
0000A800
ENDCHAR
STARTCHAR 0044
ENCODING 68
SWIDTH 648 0
DWIDTH 36 0
BBX 30 39 3 -1
BITMAP
0FF80000
FFFFC000
FFFFF800
7FFFFE00
7FFFFF00
7E01FFC0
7E003FC0
7E001FE0
7E000FF0
7E0007F0
7E0003F8
7E0003F8
7E0001FC
7E0001FC
7E0001FC
7E0000FC
7E0000FC
7E0000FC
7E0000FC
7E0000FC
7E0000FC
7E0000FC
7E0000FC
7E0000FC
7E0000FC
7E0001FC
7E0001F8
7C0001F8
7C0003F8
7C0003F0
7C0007F0
7C000FE0
FE001FC0
FF807F80
FFFFFF00
7FFFFE00
3FFFFC00
07FFE000
00180000
ENDCHAR
STARTCHAR 0045
ENCODING 69
SWIDTH 504 0
DWIDTH 28 0
BBX 23 37 3 0
BITMAP
FFFFFC
FFFFFC
FFFFFC
7FFFFC
7E003C
7E0000
7E0000
7E0000
7E0000
7E0000
7E0000
7E0000
7E0000
7E0000
7E0000
7FFFC0
7FFFC0
7FFFC0
7FFF80
7E0000
7E0000
7E0000
7E0000
7E0000
7E0000
7E0000
7E0000
7E0000
7E0000
7E0000
7E0000
7E0000
7E007E
7FFFFE
7FFFFE
7FFFFE
3FFFFC
ENDCHAR
STARTCHAR 0046
ENCODING 70
SWIDTH 450 0
DWIDTH 25 0
BBX 22 38 3 -1
BITMAP
FFFFFC
FFFFFC
FFFFFC
7FFFFC
7E003C
7E0000
7E0000
7E0000
7E0000
7E0000
7E0000
7E0000
7E0000
7E0000
7E0000
7FFF80
7FFFC0
7FFFC0
7FFF80
7FFF80
7E0000
7E0000
7E0000
7E0000
7E0000
7E0000
7E0000
7E0000
7E0000
7E0000
7E0000
7E0000
7E0000
7E0000
7E0000
7E0000
7F0000
080000
ENDCHAR
STARTCHAR 0047
ENCODING 71
SWIDTH 630 0
DWIDTH 35 0
BBX 30 39 2 -1
BITMAP
0000F800
001FFF80
007FFFE0
00FFFFF0
03FFFFF8
07FC07F8
0FF001F8
0FE000F8
1FC000F8
3F800060
3F800000
3F000000
7F000000
7E000000
7E000000
7E000000
FE000000
FE000000
FE000000
FE000000
FE000070
FE0000FC
7E0000FC
7E0000FC
7E0000FC
7F0000FC
7F0000FC
3F8000FC
3F8000FC
1FC000FC
1FC000FC
0FE000FC
07F000FC
03FC03FC
01FFFFFC
00FFFFF8
007FFFE0
000FFF80
0000A800
ENDCHAR
STARTCHAR 0048
ENCODING 72
SWIDTH 630 0
DWIDTH 35 0
BBX 29 37 3 0
BITMAP
FC0003F0
FE0003F0
FE0003F0
FE0003F0
FE0003F0
FE0003F0
FE0003F0
FE0003F0
FE0003F0
FE0003F0
FC0003F0
7C0003F0
7C0003F0
7C0003F0
7C0003F0
7FFFFFF0
7FFFFFF0
7FFFFFF0
7FFFFFF0
7C0003F0
7C0003F0
7C0003F0
7C0003F0
7C0003F0
7C0003F0
7C0003F0
FC0003F0
FC0003F0
FC0003F0
FC0003F0
FE0003F0
FE0003F0
FE0003F0
FE0003F0
FE0003F8
7E0003F8
7E0001F8
ENDCHAR
STARTCHAR 0049
ENCODING 73
SWIDTH 252 0
DWIDTH 14 0
BBX 7 37 3 0
BITMAP
FC
FE
FE
FE
FE
FE
FE
FE
FE
FE
FC
7C
7C
7C
7C
7C
7C
7C
7C
7C
7C
7C
7C
7C
7C
7C
FC
FC
FC
FC
FE
FE
FE
FE
FE
7E
7E
ENDCHAR
STARTCHAR 004A
ENCODING 74
SWIDTH 252 0
DWIDTH 14 0
BBX 12 44 -2 -7
BITMAP
03F0
03F0
03F0
03F0
03F0
03F0
03F0
03F0
03F0
03F0
03F0
03F0
03F0
03F0
03F0
03F0
03F0
03F0
03F0
03F0
03F0
03F0
03F0
03F0
03F0
03F0
03F0
03F0
03F0
03F0
03F0
03F0
03F0
03F0
03F0
03F0
07E0
0FE0
1FC0
FFC0
FF80
FF00
7C00
3000
ENDCHAR
STARTCHAR 004B
ENCODING 75
SWIDTH 522 0
DWIDTH 29 0
BBX 26 38 3 -1
BITMAP
FC000C00
FE001E00
FE001F00
FE003F00
FE007E00
FE00FC00
FE01FC00
FE03F800
FE07F000
FC0FE000
FC1F8000
7C3F0000
7C7E0000
7CFC0000
7DF80000
7FF00000
7FE00000
7FF00000
7FF00000
7FF80000
7CFC0000
7CFC0000
7C7E0000
7C7E0000
7C3F0000
7C3F0000
FC1F8000
FC1FC000
FC0FC000
FC07E000
FE07F000
FE03F800
FE01FC00
FE01FFC0
FE00FFC0
7E007FC0
7E001FC0
00000200
ENDCHAR
STARTCHAR 004C
ENCODING 76
SWIDTH 450 0
DWIDTH 25 0
BBX 22 37 3 0
BITMAP
FC0000
FE0000
FE0000
FE0000
FE0000
FE0000
FE0000
FE0000
FE0000
FE0000
7C0000
7C0000
7C0000
7C0000
7C0000
7C0000
7C0000
7C0000
7C0000
7C0000
7C0000
7C0000
7C0000
7C0000
7C0000
7C0000
7C0000
FC0000
FE0000
FE0000
FE0000
FE0008
FE00F8
FFFFFC
FFFFFC
7FFFF8
7FFFF0
ENDCHAR
STARTCHAR 004D
ENCODING 77
SWIDTH 792 0
DWIDTH 44 0
BBX 38 37 3 0
BITMAP
FE000001FC
FF000003FC
7F800003FC
7FC00007FC
7FC0000FF8
7FE0000FF8
7FE0001FF8
7FF0001FF8
7FF0001FF8
7DF8003FF8
7DF8003FF8
7DF8007DF8
7CFC007DF8
7CFC00FDF8
7CFE00F9F8
7C7E00F9F8
7C7E01F1F8
7C3F01F1F8
7C3F01F1F8
7C3F03E1F8
7C1F83E1F8
7C1F83E1F8
7C1F87C1F8
7C0FC7C1F8
7C0FC7C1F8
7C0FCF81F8
7C07CF81F8
7C07EF81F8
7C07EF01F8
7C03FF01F8
7C03FF01F8
7C01FF01F8
7E01FE01F8
7E01FE01FC
7E00FE01FC
7E00FC00FC
3E007C00FC
ENDCHAR
STARTCHAR 004E
ENCODING 78
SWIDTH 630 0
DWIDTH 35 0
BBX 28 37 3 0
BITMAP
FE0003F0
FF0001F0
7F8001F0
7F8001F0
7FC001F0
7FE001F0
7FE001F0
7FF001F0
7FF801F0
7DF801F0
7DFC01F0
7CFE01F0
7C7E01F0
7C7F01F0
7C3F01F0
7C3F81F0
7C1FC1F0
7C0FC1F0
7C0FE1F0
7C07E1F0
7C07F1F0
7C03F1F0
7C03F9F0
7C01FDF0
7C00FDF0
7C00FFF0
7C007FF0
7C007FF0
7C003FF0
7C003FF0
7C001FF0
7E000FF0
7E000FF0
7E0007F0
7E0007F0
7E0003F0
3E0001F0
ENDCHAR
STARTCHAR 004F
ENCODING 79
SWIDTH 720 0
DWIDTH 40 0
BBX 36 39 2 -1
BITMAP
0000F00000
001FFF8000
007FFFE000
01FFFFF800
03FFFFFC00
07FC03FE00
0FF000FF00
0FE0007F80
1FC0003F80
3F80001FC0
3F00001FC0
3F00000FE0
7F00000FE0
7E000007E0
7E000007E0
7E000007F0
FE000007F0
FE000007F0
FE000007F0
FE000007F0
FE000007F0
FE000007F0
7E000007F0
7E000007F0
7E000007E0
7F000007E0
7F00000FE0
3F00000FC0
3F80000FC0
3FC0001FC0
1FC0003F80
0FE0007F00
0FF800FF00
07FC03FE00
03FFFFFC00
00FFFFF000
007FFFE000
001FFF8000
0000600000
ENDCHAR
STARTCHAR 0050
ENCODING 80
SWIDTH 522 0
DWIDTH 29 0
BBX 25 38 3 0
BITMAP
0FF80000
FFFF8000
FFFFE000
FFFFF800
7FFFFC00
7E01FE00
7E00FE00
7E007F00
7E003F00
7E003F00
7E003F00
7E003F80
7E003F80
7E003F80
7E003F80
7E003F00
7E003F00
7E007F00
7E00FF00
7E01FE00
7FEFFC00
7FFFFC00
7FFFF000
7FFFE000
7E3F8000
7E000000
7E000000
7E000000
7E000000
7E000000
7E000000
7E000000
7E000000
7E000000
7E000000
7E000000
7E000000
3F000000
ENDCHAR
STARTCHAR 0051
ENCODING 81
SWIDTH 720 0
DWIDTH 40 0
BBX 36 48 2 -10
BITMAP
0000F00000
001FFF8000
007FFFE000
01FFFFF800
03FFFFFC00
07FC03FE00
0FF000FF00
1FE0007F00
1FC0003F80
3F80001FC0
3F00001FC0
3F00000FC0
7E00000FE0
7E00000FE0
7E000007E0
7E000007E0
FE000007E0
FE000007F0
FE000007F0
FE000007F0
FE000007F0
FE000007F0
7E000007E0
7E000007E0
7E000007E0
7F000007E0
7F00000FE0
3F00000FC0
3F80001FC0
3FC0001FC0
1FC0003F80
0FE0007F00
0FF000FF00
07FC03FE00
03FFFFFC00
01FFFFF000
007FFFE000
001FFF8000
0001F00000
0000F00000
0000F80080
0000FC01C0
00007E07C0
00007FFFC0
00003FFFC0
00001FFFC0
00000FFF80
000003FF00
ENDCHAR
STARTCHAR 0052
ENCODING 82
SWIDTH 540 0
DWIDTH 30 0
BBX 27 39 3 -1
BITMAP
0FF80000
FFFF8000
FFFFF000
FFFFF800
7FFFFC00
7E01FE00
7E007F00
7E007F00
7E003F00
7E003F00
7E003F80
7E003F80
7E003F80
7E003F80
7E003F00
7E007F00
7E007F00
7E00FE00
7E03FE00
7E7FFC00
7E7FF800
7E7FE000
7E3F8000
7E3F8000
7E1F8000
7E1FC000
7E1FC000
7E0FE000
7E0FE000
7E07F000
7E07F000
7E03F800
7E01FC00
7E01FE00
7E00FFE0
7E007FE0
7E007FE0
3F001FC0
00000300
ENDCHAR
STARTCHAR 0053
ENCODING 83
SWIDTH 540 0
DWIDTH 30 0
BBX 26 39 2 -1
BITMAP
001F8000
00FFF800
03FFFC00
0FFFFF00
1FFFFF00
3F807F80
3F003F80
3E000F00
7C000E00
7C000800
7C000000
7C000000
7E000000
7F000000
3F800000
3FF00000
1FFF0000
1FFFC000
0FFFF800
03FFFC00
00FFFE00
003FFF00
0007FF80
0000FF80
00003F80
00001F80
00000FC0
00000F80
00000F80
10000F80
70000F80
F8001F80
FE003F00
FF807F00
7FFFFE00
7FFFFC00
1FFFF800
07FFC000
00180000
ENDCHAR
STARTCHAR 0054
ENCODING 84
SWIDTH 486 0
DWIDTH 27 0
BBX 27 37 0 0
BITMAP
7FFFFFE0
FFFFFFE0
FFFFFFE0
FFFFFFE0
FF9F8000
001F8000
001F8000
001F8000
001F8000
001F8000
001F8000
001F8000
001F8000
001F8000
001F8000
001F8000
001F8000
001F8000
001F8000
001F8000
001F8000
001F8000
001F8000
001F8000
001F8000
001F8000
001F8000
001F8000
001F8000
001F8000
001F8000
001F8000
001F8000
001F8000
001F8000
001F8000
001FC000
ENDCHAR
STARTCHAR 0055
ENCODING 85
SWIDTH 648 0
DWIDTH 36 0
BBX 29 38 4 -1
BITMAP
FC0003F0
FE0003F0
FE0003F0
FE0003F0
FE0003F0
FE0003F0
FE0003F0
FE0003F0
FE0003F0
FE0003F0
FC0003F0
FC0003F0
FC0003F0
FC0003F0
FC0003F0
FC0003F0
FC0003F0
FC0003F0
FC0003F0
FC0003F0
FC0003F0
FC0003F0
FC0003F0
FC0003F0
FC0003F0
FC0003F0
FC0003F0
FC0003F0
FC0003F0
FE0007F0
FF001FF0
7F807FF0
7FE3FFF0
7FFFFBF0
3FFFF3F0
1FFFC3F8
07FF01F8
00200000
ENDCHAR
STARTCHAR 0056
ENCODING 86
SWIDTH 576 0
DWIDTH 32 0
BBX 33 38 -1 0
BITMAP
0000000E00
3E00001F80
FF00001F80
7F00001F80
7F80001F80
3F80001F80
1FC0001F80
1FC0001F80
0FE0003F00
0FE0003F00
07E0003F00
07F0003F00
07F0003E00
03F0007E00
03F8007E00
01F8007C00
01F800FC00
01FC00FC00
00FC00F800
00FC00F800
00FE01F800
007E01F000
007E03F000
007F03E000
003F03E000
003F07E000
003F87C000
001F8FC000
001F8F8000
001F9F8000
000FFF0000
000FFE0000
000FFE0000
000FFC0000
0007F80000
0007F80000
0007F00000
0007C00000
ENDCHAR
STARTCHAR 0057
ENCODING 87
SWIDTH 954 0
DWIDTH 53 0
BBX 53 38 -1 0
BITMAP
000000380000E0
3E00007E0001F8
FF00007E0001F8
7F00007E0001F8
7F80007E0001F8
3F80007E0001F8
3FC0007F0001F8
1FC0007F0001F8
1FC0007F0001F8
0FE000FF8003F0
0FE000FF8003F0
07E000FF8003F0
07F000FFC003F0
03F000FFC003E0
03F001FFC007E0
03F801FFE007E0
01F801F7E007C0
01F801F7E007C0
01F803F7F00FC0
00FC03E3F00F80
00FC03E3F00F80
00FC07E3F01F80
007E07C1F81F00
007E07C1F81F00
007E0F81F83F00
003E0F80F83E00
003F1F80FC7E00
003F1F00FC7C00
003F3F00FCFC00
001F3E007CF800
001FFE007FF800
001FFC007FF000
001FFC003FF000
000FF8003FE000
000FF0003FC000
000FF0003FC000
000FE0003F8000
000780001E0000
ENDCHAR
STARTCHAR 0058
ENCODING 88
SWIDTH 612 0
DWIDTH 34 0
BBX 33 39 1 -1
BITMAP
0600008000
1F8000F800
7F8001FC00
7FC001FC00
3FE001FC00
1FF003F800
0FF003F800
07F807F000
03F80FF000
03FC0FE000
01FE1FC000
00FE1F8000
007F3F8000
007F7F0000
003FFE0000
001FFC0000
001FF80000
000FF00000
0007E00000
000FF00000
001FF80000
003FF80000
007FFC0000
00FEFE0000
00FCFE0000
01F87F0000
03F87F8000
07F03F8000
0FE01FC000
1FE01FE000
1FC00FF000
3F800FF000
7F8007F800
7F0003FC00
FF0003FE00
FE0001FF80
FE0000FF00
7C00007E00
0400001800
ENDCHAR
STARTCHAR 0059
ENCODING 89
SWIDTH 504 0
DWIDTH 28 0
BBX 29 38 -1 0
BITMAP
00000080
1F0000F0
3F8001F8
FF8001F8
3FC001F8
1FE003F8
1FE003F0
0FF007F0
07F007E0
03F80FE0
03FC0FC0
01FC1F80
00FE1F80
00FE3F00
007F3E00
007F7C00
003FFC00
001FF800
001FF000
000FE000
000FE000
000FC000
000FC000
000FC000
000FC000
000FC000
000FC000
000FC000
000FC000
000FC000
000FC000
000FC000
000FE000
000FE000
000FE000
000FE000
0007E000
0007E000
ENDCHAR
STARTCHAR 005A
ENCODING 90
SWIDTH 576 0
DWIDTH 32 0
BBX 30 37 1 0
BITMAP
1FFFFFE0
3FFFFFF8
3FFFFFFC
3FFFFFFC
3F0003F8
000007F8
00000FF0
00001FE0
00001FC0
00003FC0
00007F80
0000FF00
0000FE00
0001FC00
0003FC00
0007F800
000FF000
000FE000
001FC000
003FC000
007F8000
007F0000
00FE0000
01FC0000
03FC0000
07F80000
07F00000
0FE00000
1FC00000
3FC00000
7F800000
7F000030
FE0007F0
FFFFFFF0
FFFFFFF0
7FFFFFF0
7FFFFFE0
ENDCHAR
STARTCHAR 005B
ENCODING 91
SWIDTH 378 0
DWIDTH 21 0
BBX 12 51 7 -11
BITMAP
FFF0
FFF0
FFF0
FFE0
FC00
FC00
FC00
FC00
FC00
FC00
FC00
FC00
FC00
FC00
FC00
FC00
FC00
FC00
FC00
FC00
FC00
FC00
FC00
FC00
FC00
FC00
FC00
FC00
FC00
FC00
FC00
FC00
FC00
FC00
FC00
FC00
FC00
FC00
FC00
FC00
FC00
FC00
FC00
FC00
FC00
FC00
FC00
FFF0
FFF0
FFF0
FFF0
ENDCHAR
STARTCHAR 005C
ENCODING 92
SWIDTH 270 0
DWIDTH 15 0
BBX 11 49 2 -7
BITMAP
4000
F000
F000
F000
F000
F000
F000
7800
7800
7800
7800
7800
7800
7800
3C00
3C00
3C00
3C00
3C00
3C00
1E00
1E00
1E00
1E00
1E00
1E00
0E00
0F00
0F00
0F00
0F00
0F00
0F00
0780
0780
0780
0780
0780
0780
03C0
03C0
03C0
03C0
03C0
03C0
03E0
03E0
01E0
0180
ENDCHAR
STARTCHAR 005D
ENCODING 93
SWIDTH 360 0
DWIDTH 20 0
BBX 13 51 1 -11
BITMAP
7FF8
FFF8
7FF8
3FF8
01F8
01F8
01F8
01F8
01F8
01F8
01F8
01F8
01F8
01F8
01F8
01F8
01F8
01F8
01F8
01F8
01F8
01F8
01F8
01F8
01F8
01F8
01F8
01F8
01F8
01F8
01F8
01F8
01F8
01F8
01F8
01F8
01F8
01F8
01F8
01F8
01F8
01F8
01F8
01F8
01F8
01F8
01F8
7FF8
FFF8
FFF8
7FF8
ENDCHAR
STARTCHAR 005E
ENCODING 94
SWIDTH 486 0
DWIDTH 27 0
BBX 25 15 1 23
BITMAP
000C0000
001C0000
003E0000
007F0000
00FF8000
01FFC000
03FFE000
07F7F000
0FE3F800
1FC1FC00
1F80FE00
3F007E00
7E003F00
FC000F80
70000700
ENDCHAR
STARTCHAR 005F
ENCODING 95
SWIDTH 540 0
DWIDTH 30 0
BBX 30 5 0 -9
BITMAP
20000004
FFFFFFFC
FFFFFFFC
FFFFFFFC
80000010
ENDCHAR
STARTCHAR 0060
ENCODING 96
SWIDTH 234 0
DWIDTH 13 0
BBX 12 11 -2 29
BITMAP
6000
F000
FC00
FE00
FF00
7F80
1FE0
07F0
01F0
00E0
0020
ENDCHAR
STARTCHAR 0061
ENCODING 97
SWIDTH 486 0
DWIDTH 27 0
BBX 22 28 2 -1
BITMAP
03FF00
0FFFC0
3FFFE0
7FFFF0
FF87F0
FE03F8
FC01F8
7C01F8
0001F8
0001F8
0001F8
0001F8
03FFF8
1FFFF8
3FFFF8
7FF1F8
7F01F8
FE01F8
FC01F8
FC01F8
FC01F8
FE01F8
FE03F8
7FDFF8
7FFFFC
3FFCFC
0FF0FC
030000
ENDCHAR
STARTCHAR 0062
ENCODING 98
SWIDTH 522 0
DWIDTH 29 0
BBX 24 43 3 -1
BITMAP
700000
FC0000
FE0000
FE0000
FE0000
FE0000
FE0000
FE0000
FE0000
FE0000
FC0000
FC0000
FC0000
FC0000
7C0000
7C3FC0
7CFFF0
7DFFF8
7FFFFC
7FC1FE
7F00FE
7E007E
7C007F
7C003F
7C003F
7E003F
7E003F
7E003F
7E003F
7E003F
7E003F
7C003F
7C003F
7C003F
7C007E
7C007E
7E00FC
FF81FC
FFFFF8
7FFFF0
1FFFE0
07FF80
001000
ENDCHAR
STARTCHAR 0063
ENCODING 99
SWIDTH 468 0
DWIDTH 26 0
BBX 22 28 2 -1
BITMAP
007F80
01FFF0
07FFF8
0FFFFC
1FE1FC
3F80FC
3F007C
7F0038
7E0000
7E0000
FE0000
FC0000
FC0000
FC0000
FC0000
FC0000
FC0000
FE0000
7E0000
7E0000
7F0010
3F8018
1FC07C
0FFFFC
07FFFC
03FFF8
00FFF0
000400
ENDCHAR
STARTCHAR 0064
ENCODING 100
SWIDTH 540 0
DWIDTH 30 0
BBX 25 43 2 -1
BITMAP
00001C00
00007F00
00007F00
00003F00
00003F00
00003F00
00003F00
00003F00
00003F00
00003F00
00003F00
00003F00
00003F00
00003F00
00003F00
00FF3F00
03FFFF00
07FFFF00
0FFFFF00
1FC0FF00
3F803F00
3F003F00
7E003F00
7E003F00
7E003F00
FC003F00
FC003F00
FC003F00
FC003F00
FC003F00
FC003F00
FE003F00
FE003F00
7E003F00
7F003F00
7F003F00
3F807F00
1FC0FF00
1FFFFF00
0FFFFF00
07FFBF00
01FF1F80
00180000
ENDCHAR
STARTCHAR 0065
ENCODING 101
SWIDTH 486 0
DWIDTH 27 0
BBX 23 28 2 -1
BITMAP
007F80
01FFE0
07FFF8
0FFFFC
1FC1FC
3F80FE
3F007E
7E007E
7E007E
7E007E
FC00FE
FC03FC
FFFFFC
FFFFF8
FFFFE0
FFFF00
FC0000
FE0000
7E0000
7E0000
7F0010
3F8018
1FC07C
0FFFFC
07FFFC
03FFF8
00FFF0
000400
ENDCHAR
STARTCHAR 0066
ENCODING 102
SWIDTH 342 0
DWIDTH 19 0
BBX 21 40 0 0
BITMAP
001FE0
007FF0
00FFF8
01FFF0
03F8F0
03F020
03E000
07E000
07E000
07E000
07E000
07E000
07E000
1FFFC0
7FFFC0
FFFFC0
FFFFC0
FFFE00
07E000
07E000
07E000
07E000
07E000
07E000
07E000
07E000
07E000
07E000
07E000
07E000
07E000
07E000
07E000
07E000
07E000
07E000
07E000
07E000
07E000
03F000
ENDCHAR
STARTCHAR 0067
ENCODING 103
SWIDTH 540 0
DWIDTH 30 0
BBX 27 42 2 -14
BITMAP
000003E0
01FF0FE0
07FFDFE0
0FFFFFE0
1FFFFF20
3F83FC00
7E01FC00
7E00FE00
FC00FE00
FC007E00
FC007E00
FC007E00
FC007E00
FE007E00
7E007E00
7F00FC00
7F81FC00
3FFFF800
1FFFF000
0FFFE000
07FF8000
0F800000
0F000000
1F000000
3E000000
3F800000
3FFFFC00
3FFFFF00
1FFFFF80
0FFFFF80
3E003F80
7C000FC0
7C000FC0
F8000FC0
F8000F80
FC001F80
FE007F00
FFFFFE00
7FFFFC00
3FFFF800
1FFFE000
03FF0000
ENDCHAR
STARTCHAR 0068
ENCODING 104
SWIDTH 540 0
DWIDTH 30 0
BBX 24 42 3 0
BITMAP
300000
FC0000
FE0000
FE0000
FE0000
FE0000
FE0000
FC0000
FC0000
FC0000
FC0000
FC0000
FC0000
FC0000
FC0000
FC1FC0
FCFFF0
FDFFF8
FFFFFC
FF83FC
FF01FC
FC00FC
FC00FC
FC007C
FC007C
FC007C
FC007C
FC007C
FC007C
FC007C
FC007C
FC007C
FC00FC
FC00FC
FC00FC
FC00FC
FC00FC
FC00FE
FC00FE
FC007E
FC007E
7C003F
ENDCHAR
STARTCHAR 0069
ENCODING 105
SWIDTH 252 0
DWIDTH 14 0
BBX 8 37 3 0
BITMAP
3C
7E
FF
FF
FF
FF
7E
3C
00
00
7C
7E
7E
7F
7E
7E
7E
7E
7E
7E
7E
7E
7E
7E
7E
7E
7E
7E
7E
7E
7E
7E
7E
7E
7F
7F
3F
ENDCHAR
STARTCHAR 006A
ENCODING 106
SWIDTH 252 0
DWIDTH 14 0
BBX 18 51 -7 -14
BITMAP
000F80
001FC0
001FC0
003FC0
003FC0
001FC0
001F80
000700
000000
000000
001F00
001FC0
001FC0
001FC0
001FC0
001FC0
000FC0
000FC0
000FC0
000FC0
000FC0
000FC0
000F80
000F80
000F80
000F80
000F80
000F80
000F80
000F80
000F80
000FC0
000FC0
000FC0
000FC0
000FC0
000FC0
000FC0
000FC0
000FC0
000FC0
000FC0
000FC0
000F80
201F80
601F80
F83F00
FFFF00
FFFE00
7FFC00
1FE000
ENDCHAR
STARTCHAR 006B
ENCODING 107
SWIDTH 504 0
DWIDTH 28 0
BBX 23 43 3 -1
BITMAP
300000
FC0000
FE0000
FE0000
FE0000
FE0000
FE0000
FC0000
FC0000
FC0000
FC0000
FC0000
FC0000
FC0000
FC0000
FC3F80
FCFFE0
FFFFF0
FFFFF8
FF83F8
FE01F8
FC00FC
FC00FC
FC00FC
FC01F8
FC01F8
FC03F0
FCFFF0
FDFFE0
FCFFC0
FCFF00
FC7C00
FC7E00
FC3E00
FC3F00
FC1F80
FC1FC0
FC0FE0
FC07FE
FC03FE
FC03FE
7C00FE
000020
ENDCHAR
STARTCHAR 006C
ENCODING 108
SWIDTH 252 0
DWIDTH 14 0
BBX 8 42 3 0
BITMAP
30
FC
FE
FE
FE
FE
FE
FC
FC
FC
FC
FC
FC
FC
FC
FC
FC
FC
FC
FC
FC
FC
FC
FC
FC
FC
FC
FC
FC
FC
FC
FC
FC
FC
FC
FC
FC
FE
FE
FE
7E
7F
ENDCHAR
STARTCHAR 006D
ENCODING 109
SWIDTH 828 0
DWIDTH 46 0
BBX 41 27 3 0
BITMAP
781FE01FE000
FC7FF87FF800
FDFFFDFFFC00
FFFFFFFFFC00
7FC1FFC1FE00
7F00FF00FE00
7E007E007E00
7E007E007E00
7E007E007E00
7E007E007E00
7E007E007E00
7E007E007E00
7E007E007E00
7E007E007E00
7E007E007E00
7E007E007E00
7E007E007E00
7E007E007E00
7E007E007E00
7E007E007E00
7E007E007E00
7E007E007E00
7E007E007E00
7E007E007F00
7E007E007F00
7E007E003F00
7E003E003F80
ENDCHAR
STARTCHAR 006E
ENCODING 110
SWIDTH 540 0
DWIDTH 30 0
BBX 24 27 3 0
BITMAP
781FE0
FC7FF0
FDFFF8
FFFFFC
7FC1FE
7F00FE
7E007E
7E007E
7E007E
7E007E
7E007E
7E007E
7E007E
7E007E
7E007E
7E007E
7E007E
7E007E
7E007E
7E007E
7E007E
7E007E
7E007E
7E007E
7E007F
7E007F
7E003F
ENDCHAR
STARTCHAR 006F
ENCODING 111
SWIDTH 540 0
DWIDTH 30 0
BBX 26 28 2 -1
BITMAP
007FC000
03FFF000
07FFF800
0FFFFC00
1FC0FE00
3F807F00
3F003F80
7E003F80
7E001F80
7E001FC0
FC000FC0
FC000FC0
FC000FC0
FC000FC0
FC000FC0
FC000FC0
FE000FC0
FE000FC0
7E001F80
7F001F80
7F003F80
3F803F00
1FC07F00
1FFFFE00
0FFFFC00
03FFF800
01FFE000
000C0000
ENDCHAR
STARTCHAR 0070
ENCODING 112
SWIDTH 540 0
DWIDTH 30 0
BBX 25 41 3 -14
BITMAP
781FC000
FC7FF000
FDFFF800
FFFFFC00
7FC1FE00
7F00FE00
7E007F00
7E003F00
7E003F00
7E003F00
7E003F00
7E003F80
7E003F80
7E003F80
7E003F00
7E003F00
7E003F00
7E003F00
7E003F00
7E007E00
7E007E00
7E00FC00
7F01FC00
7FFFF800
7FFFF000
7FFFE000
7EFFC000
7E080000
7E000000
7E000000
7E000000
7E000000
7E000000
7E000000
7E000000
7E000000
7E000000
7E000000
7E000000
7E000000
3F000000
ENDCHAR
STARTCHAR 0071
ENCODING 113
SWIDTH 540 0
DWIDTH 30 0
BBX 25 41 2 -14
BITMAP
007FC000
03FFF800
07FFFE00
0FFFFF80
1FC0FF80
3F803F80
3F001F80
7E001F80
7E001F00
7E001F00
FC001F00
FC001F00
FC001F00
FC003F00
FC003F00
FC003F00
FE003F00
FE003F00
7E003F00
7F003F00
7F003F00
3F803F00
1FC0FF00
1FFFFF00
0FFFFF00
07FFFF00
01FF3F00
00103F00
00003F00
00003F00
00003F00
00003F00
00003F00
00003F00
00003F00
00003F00
00003F00
00003F80
00003F80
00003F80
00001F80
ENDCHAR
STARTCHAR 0072
ENCODING 114
SWIDTH 360 0
DWIDTH 20 0
BBX 16 27 3 0
BITMAP
F83E
FC7F
FCFF
FFFF
FFFE
FFC6
FF00
FE00
FC00
FC00
FC00
FC00
FC00
FC00
FC00
FC00
FC00
FC00
FC00
FC00
FC00
FC00
FE00
FE00
FE00
7E00
7F00
ENDCHAR
STARTCHAR 0073
ENCODING 115
SWIDTH 432 0
DWIDTH 24 0
BBX 21 28 2 -1
BITMAP
01FF00
0FFFC0
1FFFE0
3FFFF0
7F0FF0
7E03F0
7C01E0
FC0080
FC0000
7E0000
7F8000
7FF000
3FFF00
3FFFC0
0FFFE0
03FFF0
003FF0
0007F0
0003F0
1001F8
7001F0
F801F0
FE03F0
FFFFE0
FFFFC0
7FFF80
1FFE00
006000
ENDCHAR
STARTCHAR 0074
ENCODING 116
SWIDTH 378 0
DWIDTH 21 0
BBX 20 33 0 -1
BITMAP
07E000
07F000
07F000
07E000
07E000
3FFFF0
FFFFF0
FFFFF0
FFFFF0
FFFF00
07E000
07E000
07E000
07E000
07E000
07E000
07E000
07E000
07E000
07E000
07E000
07E000
07E000
07E000
07E000
07F000
03F000
03F020
01FDF0
01FFF0
00FFF0
007FE0
000200
ENDCHAR
STARTCHAR 0075
ENCODING 117
SWIDTH 540 0
DWIDTH 30 0
BBX 24 28 3 -1
BITMAP
780078
FC007E
FE007E
FE007E
7E007E
7E007E
7E007E
7E007E
7E007E
7E007E
7E007E
7E007E
7E007E
7E007E
7E007E
7E007E
7C007E
7C007E
7C007E
7E007E
7E007E
7E00FE
7F03FE
7FFFFE
3FFFFE
1FFF3F
0FFC3F
00C000
ENDCHAR
STARTCHAR 0076
ENCODING 118
SWIDTH 468 0
DWIDTH 26 0
BBX 24 27 0 0
BITMAP
3C003F
FE001F
FE001F
7F001F
3F003F
3F803F
3F803F
1F803E
1FC03E
0FC03E
0FC07C
0FE07C
07E07C
07E0F8
03F0F8
03F0F8
03F1F0
03F9F0
01F9E0
01FBE0
01FFE0
00FFC0
00FF80
00FF80
00FF00
007E00
007C00
ENDCHAR
STARTCHAR 0077
ENCODING 119
SWIDTH 738 0
DWIDTH 41 0
BBX 39 27 0 0
BITMAP
3C003F003E
FE001F003E
FE001F003E
7F001F003E
3F003F003E
3F803F003E
3F803F007E
1F803F007E
1FC03F807C
0FC03F807C
0FC07FC07C
0FE07FC0F8
07E07FC0F8
07E0FFE0F8
03F0FFE1F0
03F0FFE1F0
03F1F3F1F0
03F9F3F3E0
01F9F3F3E0
01FBE3F7C0
01FFC1FFC0
00FFC1FF80
00FF81FF80
00FF81FF00
00FF00FE00
007E00FC00
007C00F800
ENDCHAR
STARTCHAR 0078
ENCODING 120
SWIDTH 468 0
DWIDTH 26 0
BBX 24 28 1 -1
BITMAP
1E00F0
7F00F8
FF01FC
7F81F8
3FC3F8
1FC3F0
0FE7E0
07F7E0
07FFC0
03FF80
01FF00
00FE00
00FC00
007E00
00FE00
01FF00
03FF80
07FF80
0FDFC0
1F8FE0
1F87F0
3F07F0
7E03F8
7E01FC
FC01FE
FC00FF
7C007C
080010
ENDCHAR
STARTCHAR 0079
ENCODING 121
SWIDTH 468 0
DWIDTH 26 0
BBX 25 41 0 -14
BITMAP
1C001F00
7E001F80
FF001F80
7F001F80
3F801F00
3F801F00
1F803F00
1FC03F00
0FC03E00
0FE03E00
07E03E00
07E07C00
03F07C00
03F07C00
03F8F800
01F8F800
01F8F800
01FDF000
00FDF000
00FDF000
007FE000
007FE000
007FC000
003FC000
003F8000
003F8000
001F0000
001F0000
003E0000
007E0000
007C0000
00FC0000
01F80000
03F80000
03F00000
07E00000
0FE00000
1FC00000
3F800000
1F800000
0F000000
ENDCHAR
STARTCHAR 007A
ENCODING 122
SWIDTH 486 0
DWIDTH 27 0
BBX 24 27 1 0
BITMAP
0FFF00
3FFFFE
3FFFFE
3FFFFE
3FF1FF
3000FE
0001FE
0003FC
0003F8
0007F0
000FE0
001FC0
003F80
007F00
00FE00
01FC00
03F800
07F000
0FE000
1FC000
3F8000
7F0004
FE00FC
FFFFFC
FFFFFC
FFFFFC
7FFFF8
ENDCHAR
STARTCHAR 007B
ENCODING 123
SWIDTH 432 0
DWIDTH 24 0
BBX 19 48 3 -8
BITMAP
001FE0
007FE0
00FFE0
01FFC0
01F800
01F000
01F000
01F000
01F000
01F000
01F000
01F000
01F000
01F000
01F000
01F000
01F000
01F000
01F000
03F000
07E000
0FE000
FFC000
FF8000
FF8000
FFC000
0FE000
07F000
03F000
03F000
01F000
01F000
01F000
01F000
01F000
01F000
01F000
01F000
01F000
01F000
01F000
01F000
01F000
01F800
01FFC0
00FFE0
007FE0
001FE0
ENDCHAR
STARTCHAR 007C
ENCODING 124
SWIDTH 540 0
DWIDTH 30 0
BBX 6 55 12 -14
BITMAP
F8
7C
7C
78
78
78
78
78
78
78
78
78
78
78
78
78
78
78
78
78
78
78
78
78
78
78
78
78
78
78
78
78
78
78
78
78
78
78
78
78
78
78
78
78
78
78
78
78
78
78
F8
F8
F8
78
7C
ENDCHAR
STARTCHAR 007D
ENCODING 125
SWIDTH 414 0
DWIDTH 23 0
BBX 19 48 1 -8
BITMAP
7F0000
FFE000
FFF000
7FF000
03F000
01F800
01F800
01F800
01F800
01F800
01F800
01F800
01F800
01F800
01F800
01F800
01F800
01F800
01F800
01F800
00FC00
00FE00
007FE0
003FE0
003FE0
007FE0
00FE00
00FC00
01F800
01F800
01F800
01F800
01F800
01F800
01F800
01F800
01F800
01F800
01F800
01F800
01F800
01F800
01F800
03F000
7FF000
FFF000
FFE000
7F0000
ENDCHAR
STARTCHAR 007E
ENCODING 126
SWIDTH 558 0
DWIDTH 31 0
BBX 27 8 2 11
BITMAP
1FE00040
7FFE01E0
FFFFFFE0
FFFFFFE0
FFFFFFE0
FC1FFFE0
6001FF80
40000000
ENDCHAR
STARTCHAR 00A1
ENCODING 161
SWIDTH 306 0
DWIDTH 17 0
BBX 8 39 4 -12
BITMAP
3E
7F
FF
FF
FF
7F
7E
1C
00
00
00
00
00
7E
3E
3E
3E
3E
3E
3E
3E
3E
3E
3E
3E
3E
3E
3F
3F
3F
3F
7F
7F
7F
7F
7F
7F
7F
3F
ENDCHAR
STARTCHAR 00A2
ENCODING 162
SWIDTH 540 0
DWIDTH 30 0
BBX 24 39 4 -1
BITMAP
001C00
001C00
001C00
001C00
001C00
001F80
00FFF0
03FFFC
07FFFE
1FFCFF
3FDC3F
3F9C1F
7F1C0C
7E1C00
FE1C00
FC1C00
FC1C00
FC1C00
FC1C00
FC1C00
FC1C00
FC1C00
FC1C00
FC1C00
FC1C00
7E1C00
7E1C08
7F1C1E
3F9C3F
1FFC7F
0FFFFF
07FFFE
01FFFC
007FE0
001C00
001C00
001E00
001E00
000E00
ENDCHAR
STARTCHAR 00A3
ENCODING 163
SWIDTH 540 0
DWIDTH 30 0
BBX 23 38 4 0
BITMAP
001E00
00FF80
01FFC0
03FFC0
07FFC0
07C3C0
0F8100
0F8000
0F8000
0F8000
0FC000
0FC000
0FE000
07E000
07F000
03F000
03FFF0
7FFFF0
7FFFF0
7FFFC0
01FC00
00FC00
00FC00
00FC00
00F800
01F800
01F800
03F000
03E000
07E000
07C000
0F8000
1F0004
7E003E
FFFFFE
FFFFFE
FFFFFE
7FFFF8
ENDCHAR
STARTCHAR 00A5
ENCODING 165
SWIDTH 540 0
DWIDTH 30 0
BBX 28 38 1 0
BITMAP
000001C0
7C0001F0
FE0003F0
FE0003F0
7F0007E0
3F8007E0
1F8007E0
0FC00FC0
0FE00F80
07E01F80
03F01F00
03F83F00
01F87E00
01FC7C00
00FCFC00
007EF800
007FF000
003FF000
1FFFFFE0
3FFFFFE0
3FFFFFE0
380F8000
000F8000
000F8000
0FFFFFE0
3FFFFFE0
3FFFFFE0
381F8000
001F8000
001F8000
001F8000
001F8000
001F8000
001F8000
001F8000
001FC000
000FC000
000FC000
ENDCHAR
STARTCHAR 00A6
ENCODING 166
SWIDTH 540 0
DWIDTH 30 0
BBX 6 55 12 -14
BITMAP
F8
7C
7C
78
78
78
78
78
78
78
78
78
78
78
78
78
78
78
78
78
F8
F8
FC
78
30
00
00
00
00
00
F8
78
7C
78
78
78
78
78
78
78
78
78
78
78
78
78
78
78
78
78
78
F8
F8
78
7C
ENDCHAR
STARTCHAR 00A7
ENCODING 167
SWIDTH 468 0
DWIDTH 26 0
BBX 21 42 2 -4
BITMAP
003C00
03FF80
07FFE0
0FFFF0
1F8FF0
3F03F0
3E01F0
3E00C0
3E0000
3E0000
3F0000
3F8000
1FC000
1FE000
1FFC00
3FFF00
7FFF80
7CFFE0
7C3FF0
7C0FF0
7C03F8
7E01F8
7F80F8
3FC0F8
1FF8F8
0FFEF8
07FFF0
01FFF0
003FE0
000FE0
0007E0
0003F0
0003F0
0001F0
0001F0
3801F0
F803F0
FE03E0
FFFFE0
7FFFC0
3FFF80
0FFE00
ENDCHAR
STARTCHAR 00A8
ENCODING 168
SWIDTH 270 0
DWIDTH 15 0
BBX 18 8 -1 29
BITMAP
3C0F00
FE1F80
FE3FC0
FF3FC0
FF3FC0
FE3FC0
FE1F80
380F00
ENDCHAR
STARTCHAR 00A9
ENCODING 169
SWIDTH 864 0
DWIDTH 48 0
BBX 39 40 7 -2
BITMAP
00007E0000
0007FFE000
003FFFF800
007FEFFE00
01FC007F00
03F0001F80
07C00007C0
0F807E03E0
0F03FFC1F0
1E07FFE0F0
3E0FFFF0F8
3C1FC7F078
3C3F81F07C
787F00F03C
787E00C03C
787E00003E
78FE00001E
F0FE00001E
F0FC00001E
F0FC00001E
F0FC00001E
F0FC00001E
F0FE00001E
78FE00001E
78FE00001E
787F00003C
787F00603C
3C3FC0F03C
3C1FFFF078
3E1FFFF078
1E07FFE0F0
0F01FFC1F0
0F801E03E0
07C00007C0
03F0000F80
01FC003F00
007F83FE00
003FFFF800
000FFFE000
0001FF0000
ENDCHAR
STARTCHAR 00AA
ENCODING 170
SWIDTH 306 0
DWIDTH 17 0
BBX 15 23 1 13
BITMAP
0FE0
3FF0
7FF8
7878
307C
007C
00FC
3FFC
7FFC
7C7C
F87C
F87C
7CFC
7FFC
3FBC
0400
0000
0000
0000
7FFE
FFFE
FFFE
8000
ENDCHAR
STARTCHAR 00AB
ENCODING 171
SWIDTH 522 0
DWIDTH 29 0
BBX 24 23 2 2
BITMAP
004002
006007
00F00F
01F01F
03E03F
07E07E
0FC0FC
1F81FC
3F81F8
3F03F0
7E07E0
FC0FE0
7E07E0
7F03F0
3F03F8
1F81F8
0FC0FC
07C07E
07E03E
03F01F
01F00F
00F007
004002
ENDCHAR
STARTCHAR 00AC
ENCODING 172
SWIDTH 540 0
DWIDTH 30 0
BBX 23 16 1 3
BITMAP
3FFFFE
FFFFFE
FFFFFE
FFFFFE
E0003E
00003E
00003E
00003E
00003E
00003E
00003E
00003E
00003E
00003E
00003E
00007E
ENDCHAR
STARTCHAR 00AE
ENCODING 174
SWIDTH 594 0
DWIDTH 33 0
BBX 25 26 5 12
BITMAP
003E0000
01FFC000
07FFF000
0FC1F800
1F007C00
3C001E00
387C0F00
79FF8700
71E7C780
F1E3C780
E1E1E380
E1E3C380
E1E3C380
E1FF8380
E1FF0380
E1EF0380
E1EF8380
F1E78780
71E3E700
79F1EF00
3C000E00
3E001E00
1F007C00
0FE3F800
03FFE000
00FF8000
ENDCHAR
STARTCHAR 00AF
ENCODING 175
SWIDTH 306 0
DWIDTH 17 0
BBX 17 4 0 31
BITMAP
7FFF80
FFFF80
FFFF80
FFFF00
ENDCHAR
STARTCHAR 00B0
ENCODING 176
SWIDTH 432 0
DWIDTH 24 0
BBX 17 17 3 22
BITMAP
0FF000
1FFC00
3FFE00
7C1F00
F80F00
F00F00
F00780
F00780
F00780
F00780
F00F00
F00F00
781F00
7E7E00
3FFC00
1FF800
03E000
ENDCHAR
STARTCHAR 00B1
ENCODING 177
SWIDTH 540 0
DWIDTH 30 0
BBX 24 27 3 0
BITMAP
007C00
007E00
007E00
007E00
007E00
007E00
007E00
007E00
7F7C0F
FFFFFF
FFFFFF
FFFFFF
FFFFFE
007C00
007C00
007C00
007E00
007E00
007E00
003E00
000000
000000
7FFFFE
FFFFFE
FFFFFE
FFFFFE
F00078
ENDCHAR
STARTCHAR 00B2
ENCODING 178
SWIDTH 450 0
DWIDTH 25 0
BBX 19 26 3 12
BITMAP
00E000
07FC00
1FFF00
3FFF80
7C1F80
780F80
700FC0
0007C0
000FC0
000F80
000F80
001F80
001F00
003E00
007E00
00FC00
01F800
03F000
07E000
1F8000
3F0000
FC01E0
FFFFE0
FFFFE0
FFFFE0
7FFF00
ENDCHAR
STARTCHAR 00B3
ENCODING 179
SWIDTH 432 0
DWIDTH 24 0
BBX 17 26 3 12
BITMAP
01C000
0FFC00
3FFF00
7FFF00
781F80
700F80
200F80
000F80
000F80
001F00
003E00
0FFC00
0FF800
07FE00
007F00
001F80
000F80
000F80
000F80
000F80
000F80
E01F80
F87F00
FFFE00
7FFC00
3FF000
ENDCHAR
STARTCHAR 00B4
ENCODING 180
SWIDTH 234 0
DWIDTH 13 0
BBX 12 12 3 29
BITMAP
0040
00E0
01F0
03F0
07F0
1FE0
3FC0
7F00
FC00
F800
E000
4000
ENDCHAR
STARTCHAR 00B5
ENCODING 181
SWIDTH 522 0
DWIDTH 29 0
BBX 24 40 3 -14
BITMAP
FC00FC
FC00FE
FE00FE
FE007E
FE007E
FE007E
7E007E
7C007E
7C007E
7C007E
7C007E
7C007E
FC007C
FC007C
FC007C
FC007C
FC007E
FC007E
FC007E
FE007E
FE00FE
FF03FE
FFFFFE
FFFFFE
FFFF7E
FFFC3F
FC4000
F80000
F80000
F80000
F80000
FC0000
FC0000
FC0000
FC0000
FC0000
FC0000
FE0000
7E0000
7E0000
ENDCHAR
STARTCHAR 00B6
ENCODING 182
SWIDTH 522 0
DWIDTH 29 0
BBX 26 39 2 -7
BITMAP
01FFFFC0
07FFFFC0
1FFFFFC0
3FFFFF80
3FF8FC00
7FF8F800
7FF8F800
FFF8F800
FFF8F800
FFF8F800
FFF8F800
FFF8F800
FFF8F800
7FF8F800
7FF8F800
7FF8F800
3FF8F800
1FF8F800
0FF8F800
03F1F800
0001F800
0001F800
0001F800
0001F800
0001F800
0001F800
0001F800
0001F800
0001F800
0001F800
0001F800
0001F800
0001F800
0001F800
0001F800
0001F800
0001F800
0001F800
0003F000
ENDCHAR
STARTCHAR 00B7
ENCODING 183
SWIDTH 216 0
DWIDTH 12 0
BBX 8 9 2 10
BITMAP
3C
7E
FF
FF
FF
FF
FF
7E
18
ENDCHAR
STARTCHAR 00B8
ENCODING 184
SWIDTH 180 0
DWIDTH 10 0
BBX 11 16 1 -14
BITMAP
0C00
1E00
1E00
1C00
3C00
3F00
1F80
1FC0
07E0
03E0
03E0
03C0
7FC0
FF80
7F00
3000
ENDCHAR
STARTCHAR 00B9
ENCODING 185
SWIDTH 378 0
DWIDTH 21 0
BBX 15 26 3 12
BITMAP
0380
7FE0
FFE0
FFE0
F3E0
03E0
03C0
03C0
03C0
03C0
03C0
03C0
03C0
03C0
03C0
03C0
03C0
03C0
03C0
03C0
03C0
03E0
7FFE
FFFE
FFFE
7FFC
ENDCHAR
STARTCHAR 00BA
ENCODING 186
SWIDTH 342 0
DWIDTH 19 0
BBX 15 23 2 13
BITMAP
0FE0
1FF8
7FFC
7C7C
F83E
F01E
F01E
F01E
F01E
F01E
F81E
F83E
7E7C
3FF8
1FF0
0100
0000
0000
0000
7FFE
FFFE
FFFC
8000
ENDCHAR
STARTCHAR 00BB
ENCODING 187
SWIDTH 522 0
DWIDTH 29 0
BBX 24 23 2 2
BITMAP
200200
600700
F00F80
F80FC0
7C07C0
7E07E0
3F03F0
1F81F8
1FC0FC
0FC0FE
07E07E
03F03F
07E07F
0FE07E
0FC0FC
1F81F8
3F03F8
7E03F0
7E07E0
FC07C0
F80F80
F00700
600200
ENDCHAR
STARTCHAR 00BC
ENCODING 188
SWIDTH 954 0
DWIDTH 53 0
BBX 47 47 3 -6
BITMAP
00000000E000
00000001F000
00000001E000
03800003E000
7FE00003C000
FFE00007C000
FFE000078000
F3E0000F8000
03E0000F0000
03C0001F0000
03C0001E0000
03C0003E0000
03C0003C0000
03C0007C0000
03C000780000
03C000F80000
03C000F003E0
03C001F007E0
03C001E00FE0
03C003E01FE0
03C003C03FE0
03C007C07FC0
03C00780FBC0
03C00F81F3C0
03E00F01E3C0
7FFE1F03C3C0
FFFE1E07C3C0
FFFE3E0F83C0
7FFC3C0F03C0
00007C1E03C0
0000781F83FC
0000F81FFFFE
0000F01FFFFC
0001F01FFFFC
0001E00003C0
0003E00003C0
0003C00003C0
0007C00003C0
0007800003E0
000F800003E0
000F000003E0
001F00000080
001E00000000
003E00000000
003E00000000
003C00000000
001C00000000
ENDCHAR
STARTCHAR 00BD
ENCODING 189
SWIDTH 990 0
DWIDTH 55 0
BBX 49 47 3 -6
BITMAP
00000000E00000
00000001F00000
00000001E00000
03800003E00000
7FE00003C00000
FFE00007C00000
FFE00007800000
F3E0000F800000
03E0000F000000
03C0001F000000
03C0001E000000
03C0003E000000
03C0003C000000
03C0007C000000
03C00078000000
03C000F8000000
03C000F01FE000
03C001F07FF800
03C001E0FFFC00
03C003E1F9FE00
03C003C1E07E00
03C007C1C03E00
03C00781803E00
03C00F80003E00
03E00F00003E00
7FFE1F00003E00
FFFE1E00007E00
FFFE3E00007C00
7FFC3C0000F800
00007C0001F800
0000780003F000
0000F80007E000
0000F0000FC000
0001F0001F8000
0001E0003F0000
0003E000FC0000
0003C001F80300
0007C003FFFF80
00078003FFFF80
000F8003FFFF80
000F0003FFFE00
001F0000000000
001E0000000000
003E0000000000
003E0000000000
003C0000000000
001C0000000000
ENDCHAR
STARTCHAR 00BE
ENCODING 190
SWIDTH 972 0
DWIDTH 54 0
BBX 48 47 3 -6
BITMAP
000000007000
00000000F800
00000000F000
01C00000F000
0FFC0001F000
3FFF0001E000
7FFF0003E000
781F8003C000
700F8007C000
200F80078000
000F800F8000
000F800F0000
001F001F0000
003E001E0000
0FFC003E0000
0FF8003C0000
07FE007C01F0
007F007803F0
001F80F807F0
000F80F00FF0
000F81F01FF0
000F81E03FF0
000F83E07DF0
000F83C0F9E0
E01F87C0F1E0
F87F0781E1E0
FFFE0F83E1E0
7FFC0F07C1E0
3FF01F0781E0
00001E0F01E0
00003E0FC1FF
00003C0FFFFF
00007C0FFFFF
0000780FFFFE
0000F80001E0
0000F00001E0
0001F00001E0
0001E00001F0
0003E00001F0
0003C00001F0
0007C00001F0
000780000040
000F80000000
000F00000000
001F00000000
001E00000000
000E00000000
ENDCHAR
STARTCHAR 00BF
ENCODING 191
SWIDTH 378 0
DWIDTH 21 0
BBX 19 39 1 -12
BITMAP
00F800
01FC00
01FC00
03FE00
01FE00
01FC00
01FC00
007000
000000
000000
000000
000000
000000
00F800
00FC00
00FC00
00FC00
00FC00
00FC00
00F800
01F800
03F000
07E000
0FE000
1FC000
3F8000
7F0000
7E0000
FE0000
FC0000
FC0000
FC0180
FC01E0
FC03E0
FE07E0
7FFFE0
3FFFE0
1FFF80
07FE00
ENDCHAR
STARTCHAR 00C0
ENCODING 192
SWIDTH 576 0
DWIDTH 32 0
BBX 33 52 0 -1
BITMAP
0030000000
0078000000
00FC000000
00FE000000
007F000000
003FC00000
001FE00000
0007F00000
0001F80000
0000700000
0000200000
0000000000
0000000000
0000000000
0003E00000
0007F00000
0007F00000
0007F80000
000FF80000
000FF80000
000FFC0000
001FFC0000
001F7C0000
001F7E0000
003E7E0000
003E3E0000
007E3F0000
007C3F0000
007C1F0000
00FC1F8000
00F81F8000
00F81F8000
01F80FC000
01F00FC000
03F007C000
03E007E000
03FFFFE000
07FFFFE000
07FFFFF000
0FFFFFF000
0F8001F800
1F8001F800
1F8001F800
1F0000FC00
3F0000FC00
3E0000FE00
7E00007E00
7E00007F00
7C00003F00
FC00003F80
FC00003F80
3800000C00
ENDCHAR
STARTCHAR 00C1
ENCODING 193
SWIDTH 576 0
DWIDTH 32 0
BBX 33 53 0 -1
BITMAP
0000020000
0000070000
00000F8000
00001F8000
00003F8000
00007F0000
0000FE0000
0003FC0000
0007F00000
0007C00000
0007000000
0002000000
0000000000
0000000000
0000000000
0003E00000
0007F00000
0007F00000
0007F80000
000FF80000
000FF80000
000FFC0000
001FFC0000
001F7C0000
001F7E0000
003E7E0000
003E3E0000
007E3F0000
007C3F0000
007C1F0000
00FC1F8000
00F81F8000
00F81F8000
01F80FC000
01F00FC000
03F007C000
03E007E000
03FFFFE000
07FFFFE000
07FFFFF000
0FFFFFF000
0F8001F800
1F8001F800
1F8001F800
1F0000FC00
3F0000FC00
3E0000FE00
7E00007E00
7E00007F00
7C00003F00
FC00003F80
FC00003F80
3800000C00
ENDCHAR
STARTCHAR 00C2
ENCODING 194
SWIDTH 576 0
DWIDTH 32 0
BBX 33 51 0 -1
BITMAP
0000C00000
0001E00000
0003F80000
0007FC0000
000FFE0000
001FFF0000
003F1F0000
007C0F8000
00F8078000
0000030000
0000000000
0000000000
0000000000
0003E00000
0007F00000
0007F00000
0007F80000
000FF80000
000FF80000
000FFC0000
001FFC0000
001F7C0000
001F7E0000
003E7E0000
003E3E0000
007E3F0000
007C3F0000
007C1F0000
00FC1F8000
00F81F8000
00F81F8000
01F80FC000
01F00FC000
03F007C000
03E007E000
03FFFFE000
07FFFFE000
07FFFFF000
0FFFFFF000
0F8001F800
1F8001F800
1F8001F800
1F0000FC00
3F0000FC00
3E0000FE00
7E00007E00
7E00007F00
7C00003F00
FC00003F80
FC00003F80
3800000C00
ENDCHAR
STARTCHAR 00C3
ENCODING 195
SWIDTH 576 0
DWIDTH 32 0
BBX 33 48 0 -1
BITMAP
000E010000
003FC38000
007FF78000
00FFFF8000
00F7FF0000
00E1FE0000
0040780000
0000000000
0000000000
0000000000
0003E00000
0007F00000
0007F00000
0007F80000
000FF80000
000FF80000
000FFC0000
001FFC0000
001F7C0000
001F7E0000
003E7E0000
003E3E0000
007E3F0000
007C3F0000
007C1F0000
00FC1F8000
00F81F8000
00F81F8000
01F80FC000
01F00FC000
03F007C000
03E007E000
03FFFFE000
07FFFFE000
07FFFFF000
0FFFFFF000
0F8001F800
1F8001F800
1F8001F800
1F0000FC00
3F0000FC00
3E0000FE00
7E00007E00
7E00007F00
7C00003F00
FC00003F80
FC00003F80
3800000C00
ENDCHAR
STARTCHAR 00C4
ENCODING 196
SWIDTH 576 0
DWIDTH 32 0
BBX 33 49 0 -1
BITMAP
00380E0000
00FC1F8000
01FE3F8000
01FE3FC000
01FE3FC000
01FE3FC000
00FC3F8000
00781F0000
0000000000
0000000000
0000000000
0003E00000
0007F00000
0007F00000
0007F80000
000FF80000
000FF80000
000FFC0000
001FFC0000
001F7C0000
001F7E0000
003E7E0000
003E3E0000
007E3F0000
007C3F0000
007C1F0000
00FC1F8000
00F81F8000
00F81F8000
01F80FC000
01F00FC000
03F007C000
03E007E000
03FFFFE000
07FFFFE000
07FFFFF000
0FFFFFF000
0F8001F800
1F8001F800
1F8001F800
1F0000FC00
3F0000FC00
3E0000FE00
7E00007E00
7E00007F00
7C00003F00
FC00003F80
FC00003F80
3800000C00
ENDCHAR
STARTCHAR 00C5
ENCODING 197
SWIDTH 576 0
DWIDTH 32 0
BBX 33 52 0 -1
BITMAP
0000C00000
0007F00000
000FF80000
000E380000
001E3C0000
001E1C0000
001E1C0000
000E3C0000
000FF80000
0007F80000
0003E00000
0000000000
0000000000
0000000000
0003E00000
0007F00000
0007F00000
0007F80000
000FF80000
000FF80000
000FFC0000
001FFC0000
001F7C0000
001F7E0000
003E7E0000
003E3E0000
007E3F0000
007C3F0000
007C1F0000
00FC1F8000
00F81F8000
00F81F8000
01F80FC000
01F00FC000
03F007C000
03E007E000
03FFFFE000
07FFFFE000
07FFFFF000
0FFFFFF000
0F8001F800
1F8001F800
1F8001F800
1F0000FC00
3F0000FC00
3E0000FE00
7E00007E00
7E00007F00
7C00003F00
FC00003F80
FC00003F80
3800000C00
ENDCHAR
STARTCHAR 00C6
ENCODING 198
SWIDTH 792 0
DWIDTH 44 0
BBX 43 37 0 0
BITMAP
00001FFFFFC0
00007FFFFFE0
00007FFFFFE0
0000FFFFFFE0
0000FFC003E0
0001FFE00000
0001F7E00000
0001F7E00000
0003E7E00000
0003E7E00000
0007C7E00000
0007C7E00000
000F87E00000
001F87E00000
001F07E00000
003F07FFF800
003E07FFFC00
007E07FFF800
007C07FFF800
00FC07E00000
00F807E00000
01F807E00000
03FFFFE00000
03FFFFE00000
07FFFFE00000
07FFFFE00000
0FC007E00000
0FC007E00000
1F8007E00000
3F8007E00000
3F0007E00000
7F0007E00000
7E0007E007E0
FE0007FFFFE0
FC0007FFFFE0
FC0007FFFFE0
780003FFFFC0
ENDCHAR
STARTCHAR 00C7
ENCODING 199
SWIDTH 612 0
DWIDTH 34 0
BBX 30 52 2 -14
BITMAP
0000F800
001FFF80
007FFFE0
00FFFFF0
03FFFFF8
07FC07F8
0FF001F8
0FE000F8
1FC000F8
3F800060
3F800000
3F000000
7F000000
7E000000
7E000000
7E000000
FE000000
FE000000
FE000000
FE000000
FE000000
FE000000
7E000000
7E000000
7E000000
7F000000
7F000000
3F800000
3F800000
1FC00010
1FC00038
0FE0007C
07F800FC
07FE03FC
01FFFFFC
00FFFFF8
007FFFE0
000FFF80
0001E800
0001E000
0001E000
0001F000
0001FC00
0000FC00
00007E00
00003E00
00003E00
00003E00
0007FC00
0007F800
0007F000
0001C000
ENDCHAR
STARTCHAR 00C8
ENCODING 200
SWIDTH 504 0
DWIDTH 28 0
BBX 23 51 3 0
BITMAP
0C0000
1E0000
3F0000
3F8000
3FC000
0FF000
07F800
01FC00
007C00
003C00
000800
000000
000000
000000
FFFFFC
FFFFFC
FFFFFC
7FFFFC
7E003C
7E0000
7E0000
7E0000
7E0000
7E0000
7E0000
7E0000
7E0000
7E0000
7E0000
7FFFC0
7FFFC0
7FFFC0
7FFF80
7E0000
7E0000
7E0000
7E0000
7E0000
7E0000
7E0000
7E0000
7E0000
7E0000
7E0000
7E0000
7E0000
7E007E
7FFFFE
7FFFFE
7FFFFE
3FFFFC
ENDCHAR
STARTCHAR 00C9
ENCODING 201
SWIDTH 504 0
DWIDTH 28 0
BBX 23 52 3 0
BITMAP
000080
0000E0
0001F0
0003F0
0007F0
000FE0
003FC0
007F00
00FE00
00F800
00E000
004000
000000
000000
000000
FFFFFC
FFFFFC
FFFFFC
7FFFFC
7E003C
7E0000
7E0000
7E0000
7E0000
7E0000
7E0000
7E0000
7E0000
7E0000
7E0000
7FFFC0
7FFFC0
7FFFC0
7FFF80
7E0000
7E0000
7E0000
7E0000
7E0000
7E0000
7E0000
7E0000
7E0000
7E0000
7E0000
7E0000
7E0000
7E007E
7FFFFE
7FFFFE
7FFFFE
3FFFFC
ENDCHAR
STARTCHAR 00CA
ENCODING 202
SWIDTH 504 0
DWIDTH 28 0
BBX 23 50 3 0
BITMAP
003000
007C00
00FE00
01FF00
03FF80
07EFC0
0FC7E0
1F83E0
1E01E0
0000C0
000000
000000
000000
FFFFFC
FFFFFC
FFFFFC
7FFFFC
7E003C
7E0000
7E0000
7E0000
7E0000
7E0000
7E0000
7E0000
7E0000
7E0000
7E0000
7FFFC0
7FFFC0
7FFFC0
7FFF80
7E0000
7E0000
7E0000
7E0000
7E0000
7E0000
7E0000
7E0000
7E0000
7E0000
7E0000
7E0000
7E0000
7E007E
7FFFFE
7FFFFE
7FFFFE
3FFFFC
ENDCHAR
STARTCHAR 00CB
ENCODING 203
SWIDTH 504 0
DWIDTH 28 0
BBX 23 48 3 0
BITMAP
0701C0
1F83F0
3FC7F8
3FC7F8
3FC7F8
3FC7F8
1F87F0
0F03E0
000000
000000
000000
FFFFFC
FFFFFC
FFFFFC
7FFFFC
7E003C
7E0000
7E0000
7E0000
7E0000
7E0000
7E0000
7E0000
7E0000
7E0000
7E0000
7FFFC0
7FFFC0
7FFFC0
7FFF80
7E0000
7E0000
7E0000
7E0000
7E0000
7E0000
7E0000
7E0000
7E0000
7E0000
7E0000
7E0000
7E0000
7E007E
7FFFFE
7FFFFE
7FFFFE
3FFFFC
ENDCHAR
STARTCHAR 00CC
ENCODING 204
SWIDTH 252 0
DWIDTH 14 0
BBX 13 51 -2 0
BITMAP
3000
7800
FC00
FE00
7F80
3FC0
1FE0
07F0
01F8
0070
0020
0000
0000
0000
07F0
07F0
07F0
03F0
03F0
03F0
03F0
03F0
03F0
03F0
03F0
03F0
03F0
03F0
03F0
03F0
03F0
03F0
03F0
03F0
03F0
03F0
03F0
03F0
03F0
03F0
03F0
03F0
03F0
03F0
03F0
03F0
03F0
03F0
03F0
03F0
03F8
ENDCHAR
STARTCHAR 00CD
ENCODING 205
SWIDTH 252 0
DWIDTH 14 0
BBX 12 52 3 0
BITMAP
0040
00E0
01F0
03F0
07F0
0FF0
1FC0
7F80
FE00
F800
7000
4000
0000
0000
0000
7E00
7F00
7F00
7F00
7E00
7E00
7E00
7E00
7E00
7E00
7E00
7E00
7E00
7E00
7E00
7E00
7E00
7E00
7E00
7E00
7E00
7E00
7E00
7E00
7E00
7E00
7E00
7E00
7E00
7E00
7E00
7E00
7E00
7F00
7F00
7F00
3F00
ENDCHAR
STARTCHAR 00CE
ENCODING 206
SWIDTH 270 0
DWIDTH 15 0
BBX 16 50 -1 0
BITMAP
00C0
03E0
07F0
0FF8
1FFC
3F7E
7E3F
FC0F
F007
0002
0000
0000
0000
07E0
07F0
07F0
07F0
07F0
07F0
07E0
07E0
07E0
07E0
07E0
07E0
07E0
07E0
07E0
07E0
07E0
07E0
07E0
07E0
07E0
07E0
07E0
07E0
07E0
07E0
07E0
07E0
07E0
07E0
07E0
07E0
07F0
07F0
07F0
07F0
03F0
ENDCHAR
STARTCHAR 00CF
ENCODING 207
SWIDTH 252 0
DWIDTH 14 0
BBX 19 48 -3 0
BITMAP
1C0780
7E0FC0
FF1FE0
FF1FE0
FF1FE0
FF1FE0
7E1FC0
3C0780
000000
000000
000000
03F800
01F800
01F800
01F800
01F800
01F800
01F800
01F800
01F800
01F800
01F800
01F800
01F800
01F800
01F800
01F800
01F800
01F800
01F800
01F800
01F800
01F800
01F800
01F800
01F800
01F800
01F800
01F800
01F800
01F800
01F800
01F800
01F800
01F800
01F800
01FC00
00FC00
ENDCHAR
STARTCHAR 00D0
ENCODING 208
SWIDTH 648 0
DWIDTH 36 0
BBX 35 39 -1 -1
BITMAP
007F800000
07FFFE0000
07FFFFC000
07FFFFF000
07FFFFF800
07E00FFC00
07E003FE00
03E000FF00
03F0007F80
03F0003F80
03F0003FC0
03F0001FC0
03F0001FC0
03F0000FC0
03F0000FE0
03F0000FE0
7FFFF80FE0
FFFFF807E0
FFFFF807E0
FFFFF007E0
83E00007E0
03E00007E0
03E00007E0
03E0000FE0
03E0000FE0
03E0000FC0
03E0000FC0
07E0001FC0
07E0001F80
07E0003F80
07E0003F00
07E0007F00
07E001FE00
07FC07FC00
07FFFFF800
07FFFFF000
01FFFFC000
003FFF0000
0000C00000
ENDCHAR
STARTCHAR 00D1
ENCODING 209
SWIDTH 630 0
DWIDTH 35 0
BBX 28 47 3 0
BITMAP
00380400
00FE0E00
01FF9E00
03FFFC00
03DFFC00
0387F800
0101E000
00000000
00000000
00000000
FE0003F0
FF0001F0
7F8001F0
7F8001F0
7FC001F0
7FE001F0
7FF001F0
7FF001F0
7FF801F0
7FF801F0
7DFC01F0
7CFE01F0
7CFE01F0
7C7F01F0
7C3F81F0
7C3F81F0
7C1FC1F0
7C1FC1F0
7C0FE1F0
7C0FF1F0
7C07F1F0
7C03F9F0
7C03F9F0
7C01FDF0
7C01FDF0
7C00FFF0
7C007FF0
7C007FF0
7C003FF0
7C003FF0
7C001FF0
7E000FF0
7E000FF0
7E0007F0
7E0007F0
7E0003F0
3E0001F0
ENDCHAR
STARTCHAR 00D2
ENCODING 210
SWIDTH 720 0
DWIDTH 40 0
BBX 36 52 2 -1
BITMAP
0018000000
003C000000
007E000000
007F000000
003F800000
001FE00000
000FF00000
0003F80000
0000F80000
0000780000
0000100000
0000000000
0000000000
0000F00000
001FFF8000
007FFFE000
01FFFFF800
03FFFFFC00
07FC03FE00
0FF000FF00
0FE0007F80
1FC0003F80
3F80001FC0
3F00001FC0
3F00000FE0
7F00000FE0
7E000007E0
7E000007E0
7E000007F0
FE000007F0
FE000007F0
FE000007F0
FE000007F0
FE000007F0
FE000007F0
7E000007F0
7E000007F0
7E000007E0
7F000007E0
7F00000FE0
3F00000FC0
3F80000FC0
3FC0001FC0
1FC0003F80
0FE0007F00
0FF800FF00
07FC03FE00
03FFFFFC00
00FFFFF000
007FFFE000
001FFF8000
0000600000
ENDCHAR
STARTCHAR 00D3
ENCODING 211
SWIDTH 720 0
DWIDTH 40 0
BBX 36 53 2 -1
BITMAP
0000010000
000001C000
000003E000
000007E000
00000FE000
00001FC000
00007F8000
0000FE0000
0001FC0000
0001F00000
0001C00000
0000800000
0000000000
0000000000
0000F00000
001FFF8000
007FFFE000
01FFFFF800
03FFFFFC00
07FC03FE00
0FF000FF00
0FE0007F80
1FC0003F80
3F80001FC0
3F00001FC0
3F00000FE0
7F00000FE0
7E000007E0
7E000007E0
7E000007F0
FE000007F0
FE000007F0
FE000007F0
FE000007F0
FE000007F0
FE000007F0
7E000007F0
7E000007F0
7E000007E0
7F000007E0
7F00000FE0
3F00000FC0
3F80000FC0
3FC0001FC0
1FC0003F80
0FE0007F00
0FF800FF00
07FC03FE00
03FFFFFC00
00FFFFF000
007FFFE000
001FFF8000
0000600000
ENDCHAR
STARTCHAR 00D4
ENCODING 212
SWIDTH 720 0
DWIDTH 40 0
BBX 36 51 2 -1
BITMAP
0000600000
0000F80000
0001FC0000
0003FE0000
0007FF0000
000FDF8000
001F8FC000
003E07C000
003C03C000
0000018000
0000000000
0000000000
0000F00000
001FFF8000
007FFFE000
01FFFFF800
03FFFFFC00
07FC03FE00
0FF000FF00
0FE0007F80
1FC0003F80
3F80001FC0
3F00001FC0
3F00000FE0
7F00000FE0
7E000007E0
7E000007E0
7E000007F0
FE000007F0
FE000007F0
FE000007F0
FE000007F0
FE000007F0
FE000007F0
7E000007F0
7E000007F0
7E000007E0
7F000007E0
7F00000FE0
3F00000FC0
3F80000FC0
3FC0001FC0
1FC0003F80
0FE0007F00
0FF800FF00
07FC03FE00
03FFFFFC00
00FFFFF000
007FFFE000
001FFF8000
0000600000
ENDCHAR
STARTCHAR 00D5
ENCODING 213
SWIDTH 720 0
DWIDTH 40 0
BBX 36 48 2 -1
BITMAP
0003808000
000FE0C000
001FFBE000
003FFFC000
003DFF8000
00387F0000
00101E0000
0000000000
0000000000
0000F00000
001FFF8000
007FFFE000
01FFFFF800
03FFFFFC00
07FC03FE00
0FF000FF00
0FE0007F80
1FC0003F80
3F80001FC0
3F00001FC0
3F00000FE0
7F00000FE0
7E000007E0
7E000007E0
7E000007F0
FE000007F0
FE000007F0
FE000007F0
FE000007F0
FE000007F0
FE000007F0
7E000007F0
7E000007F0
7E000007E0
7F000007E0
7F00000FE0
3F00000FC0
3F80000FC0
3FC0001FC0
1FC0003F80
0FE0007F00
0FF800FF00
07FC03FE00
03FFFFFC00
00FFFFF000
007FFFE000
001FFF8000
0000600000
ENDCHAR
STARTCHAR 00D6
ENCODING 214
SWIDTH 720 0
DWIDTH 40 0
BBX 36 49 2 -1
BITMAP
001C038000
003F0FC000
007F0FE000
007F9FE000
007F9FE000
007F9FE000
007F0FE000
003E078000
0000000000
0000000000
0000F00000
001FFF8000
007FFFE000
01FFFFF800
03FFFFFC00
07FC03FE00
0FF000FF00
0FE0007F80
1FC0003F80
3F80001FC0
3F00001FC0
3F00000FE0
7F00000FE0
7E000007E0
7E000007E0
7E000007F0
FE000007F0
FE000007F0
FE000007F0
FE000007F0
FE000007F0
FE000007F0
7E000007F0
7E000007F0
7E000007E0
7F000007E0
7F00000FE0
3F00000FC0
3F80000FC0
3FC0001FC0
1FC0003F80
0FE0007F00
0FF800FF00
07FC03FE00
03FFFFFC00
00FFFFF000
007FFFE000
001FFF8000
0000600000
ENDCHAR
STARTCHAR 00D7
ENCODING 215
SWIDTH 540 0
DWIDTH 30 0
BBX 24 24 3 2
BITMAP
000018
78001E
FC003E
FE007E
7F00FE
3F81FC
1FC3F8
0FE7F0
07FFE0
03FFC0
01FF80
007E00
00FF00
01FF80
03FFC0
07EFE0
0FC7F0
3F83F8
7F01FC
7F00FE
FE007F
7C003E
38001C
100000
ENDCHAR
STARTCHAR 00D8
ENCODING 216
SWIDTH 720 0
DWIDTH 40 0
BBX 36 47 2 -5
BITMAP
0000000400
0000000E00
0000000F00
0000001E00
0000F01E00
001FFFBC00
007FFFF800
01FFFFF800
03FFFFFC00
07FC03FE00
0FF000FF00
0FE001FF80
1FC003FF80
3F8003DFC0
3F00079FC0
3F00070FE0
7F000F0FE0
7E000E0FE0
7E001E07E0
7E001C07F0
FE003C07F0
FE007807F0
FE007807F0
FE00F007F0
FE00F007F0
FE01E007F0
FE01C007F0
7E03C007F0
7E038007E0
7F078007E0
7F07000FE0
3F0F000FC0
3F9E000FC0
3FDE001FC0
1FFC003F80
0FF8007F00
0FF800FF00
07FC03FE00
03FFFFFC00
00FFFFF000
01FFFFE000
03DFFF8000
03C0600000
0780000000
0700000000
0700000000
0300000000
ENDCHAR
STARTCHAR 00D9
ENCODING 217
SWIDTH 648 0
DWIDTH 36 0
BBX 29 52 4 -1
BITMAP
01800000
03C00000
07E00000
07F00000
03F80000
01FE0000
00FF0000
003F8000
000FC000
00038000
00010000
00000000
00000000
00000000
FC0003F0
FE0003F0
FE0003F0
FE0003F0
FE0003F0
FE0003F0
FE0003F0
FE0003F0
FE0003F0
FE0003F0
FC0003F0
FC0003F0
FC0003F0
FC0003F0
FC0003F0
FC0003F0
FC0003F0
FC0003F0
FC0003F0
FC0003F0
FC0003F0
FC0003F0
FC0003F0
FC0003F0
FC0003F0
FC0003F0
FC0003F0
FC0003F0
FC0003F0
FE0007F0
FF001FF0
7F807FF0
7FE3FFF0
7FFFFBF0
3FFFF3F0
1FFFC3F8
07FF01F8
00200000
ENDCHAR
STARTCHAR 00DA
ENCODING 218
SWIDTH 648 0
DWIDTH 36 0
BBX 29 53 4 -1
BITMAP
00000800
00001C00
00003E00
00007E00
0000FE00
0001FE00
0003F800
000FF000
001FC000
001F0000
000E0000
00080000
00000000
00000000
00000000
FC0003F0
FE0003F0
FE0003F0
FE0003F0
FE0003F0
FE0003F0
FE0003F0
FE0003F0
FE0003F0
FE0003F0
FC0003F0
FC0003F0
FC0003F0
FC0003F0
FC0003F0
FC0003F0
FC0003F0
FC0003F0
FC0003F0
FC0003F0
FC0003F0
FC0003F0
FC0003F0
FC0003F0
FC0003F0
FC0003F0
FC0003F0
FC0003F0
FC0003F0
FE0007F0
FF001FF0
7F807FF0
7FE3FFF0
7FFFFBF0
3FFFF3F0
1FFFC3F8
07FF01F8
00200000
ENDCHAR
STARTCHAR 00DB
ENCODING 219
SWIDTH 648 0
DWIDTH 36 0
BBX 29 51 4 -1
BITMAP
00020000
000F8000
001FC000
003FE000
007FF000
00FDF800
01F8FC00
03F07C00
03C01C00
00000800
00000000
00000000
00000000
FC0003F0
FE0003F0
FE0003F0
FE0003F0
FE0003F0
FE0003F0
FE0003F0
FE0003F0
FE0003F0
FE0003F0
FC0003F0
FC0003F0
FC0003F0
FC0003F0
FC0003F0
FC0003F0
FC0003F0
FC0003F0
FC0003F0
FC0003F0
FC0003F0
FC0003F0
FC0003F0
FC0003F0
FC0003F0
FC0003F0
FC0003F0
FC0003F0
FC0003F0
FE0007F0
FF001FF0
7F807FF0
7FE3FFF0
7FFFFBF0
3FFFF3F0
1FFFC3F8
07FF01F8
00200000
ENDCHAR
STARTCHAR 00DC
ENCODING 220
SWIDTH 648 0
DWIDTH 36 0
BBX 29 49 4 -1
BITMAP
00E01C00
03F87E00
03F8FF00
07F8FF00
07FCFF00
03F8FF00
03F87E00
01F03C00
00000000
00000000
00000000
FC0003F0
FE0003F0
FE0003F0
FE0003F0
FE0003F0
FE0003F0
FE0003F0
FE0003F0
FE0003F0
FE0003F0
FC0003F0
FC0003F0
FC0003F0
FC0003F0
FC0003F0
FC0003F0
FC0003F0
FC0003F0
FC0003F0
FC0003F0
FC0003F0
FC0003F0
FC0003F0
FC0003F0
FC0003F0
FC0003F0
FC0003F0
FC0003F0
FC0003F0
FE0007F0
FF001FF0
7F807FF0
7FE3FFF0
7FFFFBF0
3FFFF3F0
1FFFC3F8
07FF01F8
00200000
ENDCHAR
STARTCHAR 00DD
ENCODING 221
SWIDTH 504 0
DWIDTH 28 0
BBX 29 52 -1 0
BITMAP
00000400
00000700
00000F00
00001F80
00003F80
00007F00
0001FE00
0003F800
0007F000
0007C000
00070000
00020000
00000000
00000000
00000080
1F0000F0
3F8001F8
FF8001F8
3FC001F8
1FE003F8
1FE003F0
0FF007F0
07F007E0
03F80FE0
03FC0FC0
01FC1F80
00FE1F80
00FE3F00
007F3E00
007F7C00
003FFC00
001FF800
001FF000
000FE000
000FE000
000FC000
000FC000
000FC000
000FC000
000FC000
000FC000
000FC000
000FC000
000FC000
000FC000
000FC000
000FE000
000FE000
000FE000
000FE000
0007E000
0007E000
ENDCHAR
STARTCHAR 00DE
ENCODING 222
SWIDTH 522 0
DWIDTH 29 0
BBX 24 37 3 0
BITMAP
FC0000
FE0000
FE0000
FE0000
FE0000
FE8000
FFFF00
FFFFE0
FFFFF0
FFFFF8
FC03FC
7C00FE
7C007E
7C007F
7C007F
7C003F
7C003F
7C003F
7C003F
7C003F
7C003F
7C007F
7C007F
7C00FE
7C01FE
7F87FC
FFFFF8
FFFFF0
FDFFE0
FC7F80
FC0000
FE0000
FE0000
FE0000
FE0000
7E0000
7E0000
ENDCHAR
STARTCHAR 00DF
ENCODING 223
SWIDTH 540 0
DWIDTH 30 0
BBX 25 39 3 -1
BITMAP
00780000
01FF8000
07FFC000
0FFFE000
1FC7F000
1F03F000
3F03F000
3E03F000
7E03F000
7E03F000
7E03E000
7E07E000
7E0FC000
7E1F8000
7E3F0000
7E7E0000
7E7C0000
7E7C0000
7E7C0000
7E7E0000
7E7F0000
7E3F8000
7E1FE000
7E0FF800
7E07FC00
7E01FE00
7E00FF00
7E007F00
7E003F80
7E001F80
7E001F80
7E181F80
7E7C1F80
7E7E1F00
7E7F7F00
FE7FFE00
FC3FFC00
FC0FF800
0000C000
ENDCHAR
STARTCHAR 00E0
ENCODING 224
SWIDTH 486 0
DWIDTH 27 0
BBX 22 41 2 -1
BITMAP
0C0000
1E0000
3F0000
3F8000
1FE000
0FF000
03F800
01FC00
007E00
001C00
000800
000000
000000
03FF00
0FFFC0
3FFFE0
7FFFF0
FF87F0
FE03F8
FC01F8
7C01F8
0001F8
0001F8
0001F8
0001F8
03FFF8
1FFFF8
3FFFF8
7FF1F8
7F01F8
FE01F8
FC01F8
FC01F8
FC01F8
FE01F8
FE03F8
7FDFF8
7FFFFC
3FFCFC
0FF0FC
030000
ENDCHAR
STARTCHAR 00E1
ENCODING 225
SWIDTH 486 0
DWIDTH 27 0
BBX 22 42 2 -1
BITMAP
000040
0000E0
0001F0
0003F0
0007F0
000FE0
003FC0
007F00
00FC00
00F800
00E000
004000
000000
000000
03FF00
0FFFC0
3FFFE0
7FFFF0
FF87F0
FE03F8
FC01F8
7C01F8
0001F8
0001F8
0001F8
0001F8
03FFF8
1FFFF8
3FFFF8
7FF1F8
7F01F8
FE01F8
FC01F8
FC01F8
FC01F8
FE01F8
FE03F8
7FDFF8
7FFFFC
3FFCFC
0FF0FC
030000
ENDCHAR
STARTCHAR 00E2
ENCODING 226
SWIDTH 486 0
DWIDTH 27 0
BBX 22 40 2 -1
BITMAP
003000
007C00
00FE00
03FF00
07FF80
0FEFC0
0F87E0
3F03E0
1E01C0
000080
000000
000000
03FF00
0FFFC0
3FFFE0
7FFFF0
FF87F0
FE03F8
FC01F8
7C01F8
0001F8
0001F8
0001F8
0001F8
03FFF8
1FFFF8
3FFFF8
7FF1F8
7F01F8
FE01F8
FC01F8
FC01F8
FC01F8
FE01F8
FE03F8
7FDFF8
7FFFFC
3FFCFC
0FF0FC
030000
ENDCHAR
STARTCHAR 00E3
ENCODING 227
SWIDTH 486 0
DWIDTH 27 0
BBX 22 37 2 -1
BITMAP
03E060
0FF8F0
1FFFF0
1FFFE0
1C7FC0
181F80
000000
000000
000000
03FF00
0FFFC0
3FFFE0
7FFFF0
FF87F0
FE03F8
FC01F8
7C01F8
0001F8
0001F8
0001F8
0001F8
03FFF8
1FFFF8
3FFFF8
7FF1F8
7F01F8
FE01F8
FC01F8
FC01F8
FC01F8
FE01F8
FE03F8
7FDFF8
7FFFFC
3FFCFC
0FF0FC
030000
ENDCHAR
STARTCHAR 00E4
ENCODING 228
SWIDTH 486 0
DWIDTH 27 0
BBX 22 38 2 -1
BITMAP
0F01E0
1F83F0
3FC7F8
3FC7F8
3FC7F8
3FC7F8
1F83F0
0F01E0
000000
000000
03FF00
0FFFC0
3FFFE0
7FFFF0
FF87F0
FE03F8
FC01F8
7C01F8
0001F8
0001F8
0001F8
0001F8
03FFF8
1FFFF8
3FFFF8
7FF1F8
7F01F8
FE01F8
FC01F8
FC01F8
FC01F8
FE01F8
FE03F8
7FDFF8
7FFFFC
3FFCFC
0FF0FC
030000
ENDCHAR
STARTCHAR 00E5
ENCODING 229
SWIDTH 486 0
DWIDTH 27 0
BBX 22 41 2 -1
BITMAP
007000
01FC00
03FE00
038F00
078F00
078700
078700
038F00
03FE00
01FC00
00F800
000000
000000
03FF00
0FFFC0
3FFFE0
7FFFF0
FF87F0
FE03F8
FC01F8
7C01F8
0001F8
0001F8
0001F8
0001F8
03FFF8
1FFFF8
3FFFF8
7FF1F8
7F01F8
FE01F8
FC01F8
FC01F8
FC01F8
FE01F8
FE03F8
7FDFF8
7FFFFC
3FFCFC
0FF0FC
030000
ENDCHAR
STARTCHAR 00E6
ENCODING 230
SWIDTH 756 0
DWIDTH 42 0
BBX 38 28 2 -1
BITMAP
03FF00FF00
0FFFC3FFC0
3FFFE7FFF0
7FFFFFFFF8
FF87FF83F8
FE03FF01FC
FC01FE00FC
7C01FC00FC
0001FC00FC
0001FC00FC
0001F801FC
0001F807F8
03FFFFFFF8
1FFFFFFFF0
3FFFFFFFC0
7FE1FFFE00
7F01F80000
FE01FC0000
FC00FC0000
FC00FC0000
FC00FE0020
FE01FF0030
FE03FF80F8
7FDF9FFFF8
7FFF0FFFF8
3FFC07FFF0
0FF001FFE0
0300000800
ENDCHAR
STARTCHAR 00E7
ENCODING 231
SWIDTH 468 0
DWIDTH 26 0
BBX 22 41 2 -14
BITMAP
007F80
01FFF0
07FFF8
0FFFFC
1FE1FC
3F80FC
3F007C
7F0038
7E0000
7E0000
FE0000
FC0000
FC0000
FC0000
FC0000
FC0000
FC0000
FE0000
7E0000
7E0000
7F0010
3F8018
1FC07C
0FFFFC
07FFFC
03FFF8
00FFF0
00F400
00F000
00F000
00F800
00FE00
007F00
003F00
001F00
000F00
001F00
03FE00
03FE00
03F800
00C000
ENDCHAR
STARTCHAR 00E8
ENCODING 232
SWIDTH 486 0
DWIDTH 27 0
BBX 23 41 2 -1
BITMAP
030000
078000
0FC000
0FF000
07F800
03FC00
00FE00
007F00
001F80
000700
000200
000000
000000
007F80
01FFE0
07FFF8
0FFFFC
1FC1FC
3F80FE
3F007E
7E007E
7E007E
7E007E
FC00FE
FC03FC
FFFFFC
FFFFF8
FFFFE0
FFFF00
FC0000
FE0000
7E0000
7E0000
7F0010
3F8018
1FC07C
0FFFFC
07FFFC
03FFF8
00FFF0
000400
ENDCHAR
STARTCHAR 00E9
ENCODING 233
SWIDTH 486 0
DWIDTH 27 0
BBX 23 42 2 -1
BITMAP
000020
000070
0000F8
0001F8
0003F8
000FF0
001FE0
003F80
007E00
007C00
007000
002000
000000
000000
007F80
01FFE0
07FFF8
0FFFFC
1FC1FC
3F80FE
3F007E
7E007E
7E007E
7E007E
FC00FE
FC03FC
FFFFFC
FFFFF8
FFFFE0
FFFF00
FC0000
FE0000
7E0000
7E0000
7F0010
3F8018
1FC07C
0FFFFC
07FFFC
03FFF8
00FFF0
000400
ENDCHAR
STARTCHAR 00EA
ENCODING 234
SWIDTH 486 0
DWIDTH 27 0
BBX 23 40 2 -1
BITMAP
000C00
001F00
003F80
007FC0
01FFE0
01FBF0
03E1F8
0FC0F8
078070
000020
000000
000000
007F80
01FFE0
07FFF8
0FFFFC
1FC1FC
3F80FE
3F007E
7E007E
7E007E
7E007E
FC00FE
FC03FC
FFFFFC
FFFFF8
FFFFE0
FFFF00
FC0000
FE0000
7E0000
7E0000
7F0010
3F8018
1FC07C
0FFFFC
07FFFC
03FFF8
00FFF0
000400
ENDCHAR
STARTCHAR 00EB
ENCODING 235
SWIDTH 486 0
DWIDTH 27 0
BBX 23 38 2 -1
BITMAP
03C078
07E0FC
0FF1FE
0FF1FE
0FF1FE
0FF1FE
07E0FC
03C078
000000
000000
007F80
01FFE0
07FFF8
0FFFFC
1FC1FC
3F80FE
3F007E
7E007E
7E007E
7E007E
FC00FE
FC03FC
FFFFFC
FFFFF8
FFFFE0
FFFF00
FC0000
FE0000
7E0000
7E0000
7F0010
3F8018
1FC07C
0FFFFC
07FFFC
03FFF8
00FFF0
000400
ENDCHAR
STARTCHAR 00EC
ENCODING 236
SWIDTH 252 0
DWIDTH 14 0
BBX 12 40 0 0
BITMAP
6000
F800
FC00
FE00
FF00
7FC0
1FE0
07F0
01F0
00E0
0020
0000
0000
0F80
0FC0
0FC0
0FE0
0FC0
0FC0
0FC0
0FC0
0FC0
0FC0
0FC0
0FC0
0FC0
0FC0
0FC0
0FC0
0FC0
0FC0
0FC0
0FC0
0FC0
0FC0
0FC0
0FC0
0FE0
0FE0
07E0
ENDCHAR
STARTCHAR 00ED
ENCODING 237
SWIDTH 252 0
DWIDTH 14 0
BBX 12 41 3 0
BITMAP
0080
01E0
03E0
07F0
0FE0
1FE0
3F80
FF00
FC00
F000
E000
4000
0000
0000
7C00
7E00
7E00
7F00
7E00
7E00
7E00
7E00
7E00
7E00
7E00
7E00
7E00
7E00
7E00
7E00
7E00
7E00
7E00
7E00
7E00
7E00
7E00
7E00
7F00
7F00
3F00
ENDCHAR
STARTCHAR 00EE
ENCODING 238
SWIDTH 252 0
DWIDTH 14 0
BBX 16 39 -1 0
BITMAP
0180
03E0
07F0
0FF8
1FFC
3F7E
7E3F
F81F
F007
0002
0000
0000
07C0
07E0
07E0
07F0
07E0
07E0
07E0
07E0
07E0
07E0
07E0
07E0
07E0
07E0
07E0
07E0
07E0
07E0
07E0
07E0
07E0
07E0
07E0
07E0
07F0
07F0
03F0
ENDCHAR
STARTCHAR 00EF
ENCODING 239
SWIDTH 252 0
DWIDTH 14 0
BBX 19 37 -2 0
BITMAP
3C0F80
7E1FC0
FF1FC0
FF3FE0
FF3FE0
FF1FC0
7E1FC0
3C0700
000000
000000
03E000
03F000
03F000
03F800
03F000
03F000
03F000
03F000
03F000
03F000
03F000
03F000
03F000
03F000
03F000
03F000
03F000
03F000
03F000
03F000
03F000
03F000
03F000
03F000
03F800
03F800
01F800
ENDCHAR
STARTCHAR 00F0
ENCODING 240
SWIDTH 540 0
DWIDTH 30 0
BBX 26 42 2 -1
BITMAP
00001000
00007800
1F00F800
1FE1F800
1FFFF000
03FFC000
007F8000
007FC000
00FFE000
03F3F000
03E1F800
03C0FC00
01007C00
00003E00
00FF3E00
03FFDF00
07FFFF00
0FFFFF00
1FC0FF80
3F007F80
3E003F80
7E003F80
7C001F80
7C001F80
FC000F80
FC000FC0
FC000FC0
FC000FC0
FC000FC0
FC000FC0
FC000F80
FC000F80
7C000F80
7E001F80
7E001F00
3F003F00
1F807E00
1FC0FC00
0FFFF800
03FFF000
01FFC000
000C0000
ENDCHAR
STARTCHAR 00F1
ENCODING 241
SWIDTH 540 0
DWIDTH 30 0
BBX 24 36 3 0
BITMAP
03F030
07FC78
0FFFF0
0FFFF0
0E3FE0
0C0FC0
000000
000000
000000
781FE0
FC7FF0
FDFFF8
FFFFFC
7FC1FE
7F00FE
7E007E
7E007E
7E007E
7E007E
7E007E
7E007E
7E007E
7E007E
7E007E
7E007E
7E007E
7E007E
7E007E
7E007E
7E007E
7E007E
7E007E
7E007E
7E007F
7E007F
7E003F
ENDCHAR
STARTCHAR 00F2
ENCODING 242
SWIDTH 540 0
DWIDTH 30 0
BBX 26 41 2 -1
BITMAP
03000000
07800000
0FC00000
0FE00000
07F80000
03FC0000
00FE0000
007F0000
001F0000
00070000
00020000
00000000
00000000
007FC000
03FFF000
07FFF800
0FFFFC00
1FC0FE00
3F807F00
3F003F80
7E003F80
7E001F80
7E001FC0
FC000FC0
FC000FC0
FC000FC0
FC000FC0
FC000FC0
FC000FC0
FE000FC0
FE000FC0
7E001F80
7F001F80
7F003F80
3F803F00
1FC07F00
1FFFFE00
0FFFFC00
03FFF800
01FFE000
000C0000
ENDCHAR
STARTCHAR 00F3
ENCODING 243
SWIDTH 540 0
DWIDTH 30 0
BBX 26 42 2 -1
BITMAP
00001000
00003800
00007C00
0000FC00
0001FC00
0007F800
000FF000
001FC000
003F0000
003E0000
00380000
00100000
00000000
00000000
007FC000
03FFF000
07FFF800
0FFFFC00
1FC0FE00
3F807F00
3F003F80
7E003F80
7E001F80
7E001FC0
FC000FC0
FC000FC0
FC000FC0
FC000FC0
FC000FC0
FC000FC0
FE000FC0
FE000FC0
7E001F80
7F001F80
7F003F80
3F803F00
1FC07F00
1FFFFE00
0FFFFC00
03FFF800
01FFE000
000C0000
ENDCHAR
STARTCHAR 00F4
ENCODING 244
SWIDTH 540 0
DWIDTH 30 0
BBX 26 40 2 -1
BITMAP
000E0000
001F0000
003F8000
007FC000
00FFF000
01FBF000
03F1F800
07C07800
07803800
00001000
00000000
00000000
007FC000
03FFF000
07FFF800
0FFFFC00
1FC0FE00
3F807F00
3F003F80
7E003F80
7E001F80
7E001FC0
FC000FC0
FC000FC0
FC000FC0
FC000FC0
FC000FC0
FC000FC0
FE000FC0
FE000FC0
7E001F80
7F001F80
7F003F80
3F803F00
1FC07F00
1FFFFE00
0FFFFC00
03FFF800
01FFE000
000C0000
ENDCHAR
STARTCHAR 00F5
ENCODING 245
SWIDTH 540 0
DWIDTH 30 0
BBX 26 37 2 -1
BITMAP
01F81800
03FE3C00
07FFF800
07FFF800
071FF000
0607E000
00000000
00000000
00000000
007FC000
03FFF000
07FFF800
0FFFFC00
1FC0FE00
3F807F00
3F003F80
7E003F80
7E001F80
7E001FC0
FC000FC0
FC000FC0
FC000FC0
FC000FC0
FC000FC0
FC000FC0
FE000FC0
FE000FC0
7E001F80
7F001F80
7F003F80
3F803F00
1FC07F00
1FFFFE00
0FFFFC00
03FFF800
01FFE000
000C0000
ENDCHAR
STARTCHAR 00F6
ENCODING 246
SWIDTH 540 0
DWIDTH 30 0
BBX 26 38 2 -1
BITMAP
03C07800
07E0FC00
0FF1FE00
0FF1FE00
0FF1FE00
0FF1FC00
07E0FC00
03C07000
00000000
00000000
007FC000
03FFF000
07FFF800
0FFFFC00
1FC0FE00
3F807F00
3F003F80
7E003F80
7E001F80
7E001FC0
FC000FC0
FC000FC0
FC000FC0
FC000FC0
FC000FC0
FC000FC0
FE000FC0
FE000FC0
7E001F80
7F001F80
7F003F80
3F803F00
1FC07F00
1FFFFE00
0FFFFC00
03FFF800
01FFE000
000C0000
ENDCHAR
STARTCHAR 00F7
ENCODING 247
SWIDTH 540 0
DWIDTH 30 0
BBX 24 26 2 1
BITMAP
003C00
007E00
007F00
007F00
007E00
007E00
001C00
000000
000000
000000
38000E
FFFFFE
FFFFFF
FFFFFE
FFFFFE
000000
000000
000000
000000
003C00
007E00
007F00
007F00
007E00
003E00
001C00
ENDCHAR
STARTCHAR 00F8
ENCODING 248
SWIDTH 540 0
DWIDTH 30 0
BBX 26 37 2 -5
BITMAP
00000400
00000700
00000F00
00000E00
00001E00
007F9C00
03FFFC00
07FFF800
0FFFFC00
1FC1FE00
3F80FF00
3F01FF80
7E01FF80
7E03DF80
7E039FC0
FC078FC0
FC070FC0
FC0F0FC0
FC0E0FC0
FC1E0FC0
FC3C0FC0
FE3C0FC0
FE780FC0
7E701F80
7FF01F80
7FE03F80
3FE03F00
1FC07F00
1FFFFE00
0FFFFC00
07FFF800
0FFFE000
0F1C0000
1E000000
1C000000
1C000000
0C000000
ENDCHAR
STARTCHAR 00F9
ENCODING 249
SWIDTH 540 0
DWIDTH 30 0
BBX 24 41 3 -1
BITMAP
0E0000
1F0000
1F8000
1FC000
0FE000
07F800
03FC00
00FE00
003E00
000E00
000400
000000
000000
780078
FC007E
FE007E
FE007E
7E007E
7E007E
7E007E
7E007E
7E007E
7E007E
7E007E
7E007E
7E007E
7E007E
7E007E
7E007E
7C007E
7C007E
7C007E
7E007E
7E007E
7E00FE
7F03FE
7FFFFE
3FFFFE
1FFF3F
0FFC3F
00C000
ENDCHAR
STARTCHAR 00FA
ENCODING 250
SWIDTH 540 0
DWIDTH 30 0
BBX 24 42 3 -1
BITMAP
000040
0000F0
0001F0
0003F8
0007F0
000FF0
001FC0
007F80
007E00
007800
007000
002000
000000
000000
780078
FC007E
FE007E
FE007E
7E007E
7E007E
7E007E
7E007E
7E007E
7E007E
7E007E
7E007E
7E007E
7E007E
7E007E
7E007E
7C007E
7C007E
7C007E
7E007E
7E007E
7E00FE
7F03FE
7FFFFE
3FFFFE
1FFF3F
0FFC3F
00C000
ENDCHAR
STARTCHAR 00FB
ENCODING 251
SWIDTH 540 0
DWIDTH 30 0
BBX 24 40 3 -1
BITMAP
001800
007C00
00FF00
01FF80
03FFC0
07EFE0
0FC3E0
1F81F0
0E00E0
000040
000000
000000
780078
FC007E
FE007E
FE007E
7E007E
7E007E
7E007E
7E007E
7E007E
7E007E
7E007E
7E007E
7E007E
7E007E
7E007E
7E007E
7C007E
7C007E
7C007E
7E007E
7E007E
7E00FE
7F03FE
7FFFFE
3FFFFE
1FFF3F
0FFC3F
00C000
ENDCHAR
STARTCHAR 00FC
ENCODING 252
SWIDTH 540 0
DWIDTH 30 0
BBX 24 38 3 -1
BITMAP
0781F0
0FC3F8
1FE3F8
1FE7F8
1FE7F8
1FE3F8
0FC3F0
0700E0
000000
000000
780078
FC007E
FE007E
FE007E
7E007E
7E007E
7E007E
7E007E
7E007E
7E007E
7E007E
7E007E
7E007E
7E007E
7E007E
7E007E
7C007E
7C007E
7C007E
7E007E
7E007E
7E00FE
7F03FE
7FFFFE
3FFFFE
1FFF3F
0FFC3F
00C000
ENDCHAR
STARTCHAR 00FD
ENCODING 253
SWIDTH 468 0
DWIDTH 26 0
BBX 25 55 0 -14
BITMAP
00001000
00003800
00007C00
0000FC00
0001FC00
0003F800
000FF000
001FC000
003F8000
003E0000
00180000
00100000
00000000
00000000
1C001F00
7E001F80
FF001F80
7F001F80
3F801F00
3F801F00
1F803F00
1FC03F00
0FC03E00
0FE03E00
07E03E00
07E07C00
03F07C00
03F07C00
03F8F800
01F8F800
01F8F800
01FDF000
00FDF000
00FDF000
007FE000
007FE000
007FC000
003FC000
003F8000
003F8000
001F0000
001F0000
003E0000
007E0000
007C0000
00FC0000
01F80000
03F80000
03F00000
07E00000
0FE00000
1FC00000
3F800000
1F800000
0F000000
ENDCHAR
STARTCHAR 00FE
ENCODING 254
SWIDTH 522 0
DWIDTH 29 0
BBX 24 56 3 -14
BITMAP
300000
FC0000
FE0000
FE0000
FE0000
FE0000
FE0000
FC0000
FC0000
FC0000
FC0000
FC0000
FC0000
FC0000
FC0000
FC1FC0
FCFFF0
FDFFF8
FFFFFC
FF83FC
FE00FE
FC007E
FC007E
FC007F
FC003F
FC003F
FC003F
FC003F
FC003F
FC003F
FC003F
FC003F
FC007E
FC007E
FC007E
FC00FC
FC01FC
FE03F8
FFFFF8
FFFFF0
FFFFE0
FDFF80
FC1000
FC0000
FC0000
FC0000
FC0000
FC0000
FC0000
FC0000
FC0000
FC0000
FE0000
FE0000
FE0000
7E0000
ENDCHAR
STARTCHAR 00FF
ENCODING 255
SWIDTH 468 0
DWIDTH 26 0
BBX 25 51 0 -14
BITMAP
03C07800
07E0FC00
0FF1FE00
0FF1FE00
0FF1FE00
0FF1FC00
07E0FC00
03C07000
00000000
00000000
1C001F00
7E001F80
FF001F80
7F001F80
3F801F00
3F801F00
1F803F00
1FC03F00
0FC03E00
0FE03E00
07E03E00
07E07C00
03F07C00
03F07C00
03F8F800
01F8F800
01F8F800
01FDF000
00FDF000
00FDF000
007FE000
007FE000
007FC000
003FC000
003F8000
003F8000
001F0000
001F0000
003E0000
007E0000
007C0000
00FC0000
01F80000
03F80000
03F00000
07E00000
0FE00000
1FC00000
3F800000
1F800000
0F000000
ENDCHAR
STARTCHAR 0131
ENCODING 305
SWIDTH 252 0
DWIDTH 14 0
BBX 7 27 4 0
BITMAP
F8
FC
FC
FE
FC
FC
FC
FC
FC
FC
FC
FC
FC
FC
FC
FC
FC
FC
FC
FC
FC
FC
FC
FC
FE
FE
7E
ENDCHAR
STARTCHAR 0141
ENCODING 321
SWIDTH 450 0
DWIDTH 25 0
BBX 27 37 -2 0
BITMAP
03F00000
03F80000
03F80000
03F00000
03F00000
03F00000
03F00000
03F00000
03F00000
03F06000
03F0F000
03F1F000
03F7F000
03FFE000
03FF8000
03FF0000
03FE0000
03FC0000
03F00000
0FF00000
1FF00000
3FF00000
7FF00000
FFF00000
FBF00000
63F00000
23F00000
03F00000
03F00000
03F00000
03F00000
03F00020
03F003E0
03FFFFE0
03FFFFE0
03FFFFE0
01FFFFC0
ENDCHAR
STARTCHAR 0142
ENCODING 322
SWIDTH 252 0
DWIDTH 14 0
BBX 20 42 -3 0
BITMAP
00E000
01F800
01F800
01F800
01F800
01F800
01F800
01F800
01F800
01F800
01F800
01F800
01F800
01F860
01F8F0
01F9F0
01FFF0
01FFE0
01FF80
01FF00
01FE00
01FC00
03F800
07F800
1FF800
3FF800
7FF800
FDF800
F9F800
F1F800
41F800
01F800
01F800
01F800
01F800
01F800
01F800
01F800
01F800
01FC00
01FC00
00FC00
ENDCHAR
STARTCHAR 0152
ENCODING 338
SWIDTH 900 0
DWIDTH 50 0
BBX 46 39 2 -1
BITMAP
0000F0000000
001FFFFFFFFC
007FFFFFFFFC
01FFFFFFFFFC
03FFFFFFFFFC
07FC03FC003C
0FF000FC0000
0FE000FC0000
1FC000FC0000
3F8000FC0000
3F0000FC0000
3F0000FC0000
7F0000FC0000
7E0000FC0000
7E0000FC0000
7E0000FC0000
FE0000FFFF80
FE0000FFFF80
FE0000FFFF80
FE0000FFFF00
FE0000FC0000
FE0000FC0000
7E0000FC0000
7E0000FC0000
7E0000FC0000
7F0000FC0000
7F0000FC0000
3F0000FC0000
3F8000FC0000
3FC000FC0000
1FC000FC0000
0FE000FC0000
0FF800FC0000
07FC03FC00FC
03FFFFFFFFFC
00FFFFFFFFFC
007FFFFFFFFC
001FFF7FFFF8
000060000000
ENDCHAR
STARTCHAR 0153
ENCODING 339
SWIDTH 846 0
DWIDTH 47 0
BBX 43 28 2 -1
BITMAP
007F8007F800
03FFF01FFE00
07FFF87FFF80
0FFFFCFFFF80
1FC0FFFC1FC0
3F807FF80FC0
3F003FF00FE0
7E003FE007E0
7E001FE007E0
7E001FC00FE0
FC000FC00FE0
FC000FC03FC0
FC000FFFFFC0
FC000FFFFF80
FC000FFFFE00
FC000FFFF000
FE000FC00000
FE000FE00000
7E001FE00000
7F001FE00000
7F003FF00100
3F803FF80380
1FC0FFFC07C0
1FFFFCFFBFC0
0FFFF87FFFC0
03FFF03FFF80
01FFE00FFE00
000E00004000
ENDCHAR
STARTCHAR 0160
ENCODING 352
SWIDTH 540 0
DWIDTH 30 0
BBX 26 51 2 -1
BITMAP
01000000
03803C00
03C0FC00
03F1F800
01FBF000
01FFE000
007FC000
003F8000
001E0000
000C0000
00000000
00000000
001F8000
00FFF800
03FFFC00
0FFFFF00
1FFFFF00
3F807F80
3F003F80
3E000F00
7C000E00
7C000800
7C000000
7C000000
7E000000
7F000000
3F800000
3FF00000
1FFF0000
1FFFC000
0FFFF800
03FFFC00
00FFFE00
003FFF00
0007FF80
0000FF80
00003F80
00001F80
00000FC0
00000F80
00000F80
10000F80
70000F80
F8001F80
FE003F00
FF807F00
7FFFFE00
7FFFFC00
1FFFF800
07FFC000
00180000
ENDCHAR
STARTCHAR 0161
ENCODING 353
SWIDTH 432 0
DWIDTH 24 0
BBX 21 40 2 -1
BITMAP
080080
1C03E0
1F07C0
1F8F80
0FFF80
07FF00
03FC00
01F800
00F000
002000
000000
000000
01FF00
0FFFC0
1FFFE0
3FFFF0
7F0FF0
7E03F0
7C01E0
FC0080
FC0000
7E0000
7F8000
7FF000
3FFF00
3FFFC0
0FFFE0
03FFF0
003FF0
0007F0
0003F0
1001F8
7001F0
F801F0
FE03F0
FFFFE0
FFFFC0
7FFF80
1FFE00
006000
ENDCHAR
STARTCHAR 0178
ENCODING 376
SWIDTH 504 0
DWIDTH 28 0
BBX 29 48 -1 0
BITMAP
00700E00
00FC3F00
01FC3F80
01FE7F80
01FE7F80
01FC7F80
01FC3F00
00F81E00
00000000
00000000
00000080
1F0000F0
3F8001F8
FF8001F8
3FC001F8
1FE003F8
1FE003F0
0FF007F0
07F007E0
03F80FE0
03FC0FC0
01FC1F80
00FE1F80
00FE3F00
007F3E00
007F7C00
003FFC00
001FF800
001FF000
000FE000
000FE000
000FC000
000FC000
000FC000
000FC000
000FC000
000FC000
000FC000
000FC000
000FC000
000FC000
000FC000
000FE000
000FE000
000FE000
000FE000
0007E000
0007E000
ENDCHAR
STARTCHAR 017D
ENCODING 381
SWIDTH 576 0
DWIDTH 32 0
BBX 30 50 1 0
BITMAP
00400000
00E00F00
00F83F00
00FC7E00
007EFC00
003FF800
001FF000
000FE000
0007C000
00010000
00000000
00000000
00000000
1FFFFFE0
3FFFFFF8
3FFFFFFC
3FFFFFFC
3F0003F8
000007F8
00000FF0
00001FE0
00001FC0
00003FC0
00007F80
0000FF00
0000FE00
0001FC00
0003FC00
0007F800
000FF000
000FE000
001FC000
003FC000
007F8000
007F0000
00FE0000
01FC0000
03FC0000
07F80000
07F00000
0FE00000
1FC00000
3FC00000
7F800000
7F000030
FE0007F0
FFFFFFF0
FFFFFFF0
7FFFFFF0
7FFFFFE0
ENDCHAR
STARTCHAR 017E
ENCODING 382
SWIDTH 468 0
DWIDTH 26 0
BBX 24 39 1 0
BITMAP
060020
0F00F8
0F83F0
07C7E0
07FFC0
03FF80
01FF00
007E00
003C00
001000
000000
000000
0FFF00
3FFFFE
3FFFFE
3FFFFE
3FF1FF
3000FE
0001FE
0003FC
0003F8
0007F0
000FE0
001FC0
003F80
007F00
00FE00
01FC00
03F800
07F000
0FE000
1FC000
3F8000
7F0004
FE00FC
FFFFFC
FFFFFC
FFFFFC
7FFFF8
ENDCHAR
STARTCHAR 0192
ENCODING 402
SWIDTH 540 0
DWIDTH 30 0
BBX 28 45 0 -7
BITMAP
00000F80
00007FE0
0000FFF0
0001FFF0
0003F3F0
0007C1E0
0007C180
0007C000
000F8000
000F8000
000F8000
000F8000
001F8000
001F8100
003FFF00
00FFFF80
01FFFF00
009F9800
001F8000
001F8000
001F8000
001F8000
001F0000
001F0000
001F0000
001F0000
001F0000
003F0000
003F0000
003F0000
003F0000
003F0000
003F0000
003F0000
003E0000
003E0000
003E0000
003E0000
187C0000
787C0000
7DF80000
FFF80000
7FF00000
7FC00000
04000000
ENDCHAR
STARTCHAR 02C6
ENCODING 710
SWIDTH 306 0
DWIDTH 17 0
BBX 16 10 0 29
BITMAP
01C0
03E0
07F0
0FFC
1FFE
3F7E
7E1F
FC0F
7007
0002
ENDCHAR
STARTCHAR 02C7
ENCODING 711
SWIDTH 306 0
DWIDTH 17 0
BBX 17 10 1 29
BITMAP
600200
F00F80
F83F00
7C7E00
7FFC00
3FF800
1FF000
07E000
03C000
018000
ENDCHAR
STARTCHAR 02D8
ENCODING 728
SWIDTH 288 0
DWIDTH 16 0
BBX 16 9 0 30
BITMAP
600E
F00F
F01F
F81E
7E7E
7FFC
3FFC
1FF8
07E0
ENDCHAR
STARTCHAR 02D9
ENCODING 729
SWIDTH 144 0
DWIDTH 8 0
BBX 8 8 0 29
BITMAP
3C
7E
FF
FF
FF
FF
7E
3C
ENDCHAR
STARTCHAR 02DA
ENCODING 730
SWIDTH 162 0
DWIDTH 9 0
BBX 10 10 -1 29
BITMAP
1F00
3F80
71C0
60C0
E0C0
E0C0
60C0
71C0
3F80
1F00
ENDCHAR
STARTCHAR 02DB
ENCODING 731
SWIDTH 450 0
DWIDTH 25 0
BBX 12 14 9 -13
BITMAP
00D0
03E0
0F80
1F00
3E00
7C00
7C00
FC00
FC00
FC60
7CF0
7FF0
3FE0
0F80
ENDCHAR
STARTCHAR 02DC
ENCODING 732
SWIDTH 306 0
DWIDTH 17 0
BBX 17 7 0 30
BITMAP
0F0100
3FC380
7FFF80
FFFF00
F3FF00
E0FC00
401000
ENDCHAR
STARTCHAR 02DD
ENCODING 733
SWIDTH 432 0
DWIDTH 24 0
BBX 23 12 0 29
BITMAP
004008
00E01C
01F03E
03F87E
07F0FE
0FE3FC
3FC7F8
7F0FE0
FE1F80
F81F00
701C00
200800
ENDCHAR
STARTCHAR 03C0
ENCODING 960
SWIDTH 540 0
DWIDTH 30 0
BBX 29 28 0 0
BITMAP
00000008
000000F8
7FFFFFF8
FFFFFFF8
FFFFFFF0
7FE07E00
43E07E00
03E07E00
03E07E00
03E07E00
03E07E00
03E07E00
03E07E00
03E07E00
03E07E00
03E07E00
03E07E00
03E07E00
03E07E00
03E07E00
03E07E00
03E07E00
03E07E00
03E07E00
03E07E00
03E07E00
07E07E00
07E03F00
ENDCHAR
STARTCHAR 2013
ENCODING 8211
SWIDTH 594 0
DWIDTH 33 0
BBX 30 5 2 12
BITMAP
7FFFFFF8
FFFFFFFC
FFFFFFFC
FFFFFFF8
E0000020
ENDCHAR
STARTCHAR 2014
ENCODING 8212
SWIDTH 864 0
DWIDTH 48 0
BBX 44 5 2 12
BITMAP
7FFFFFFFFFF0
FFFFFFFFFFF0
FFFFFFFFFFF0
FFFFFFFFFFF0
E000000000C0
ENDCHAR
STARTCHAR 2018
ENCODING 8216
SWIDTH 216 0
DWIDTH 12 0
BBX 10 15 1 26
BITMAP
0780
1FC0
3FC0
3E00
7C00
7800
F800
F800
FC00
FE00
FF00
FF00
FF00
7F00
3E00
ENDCHAR
STARTCHAR 2019
ENCODING 8217
SWIDTH 270 0
DWIDTH 15 0
BBX 10 15 2 26
BITMAP
1F00
3F80
3FC0
3FC0
3FC0
0FC0
07C0
07C0
0780
0F80
0F00
1F00
FE00
FC00
7000
ENDCHAR
STARTCHAR 201A
ENCODING 8218
SWIDTH 234 0
DWIDTH 13 0
BBX 10 16 1 -9
BITMAP
0E00
3F00
3F80
7FC0
3FC0
3FC0
0FC0
07C0
0780
0780
0F80
1F00
7F00
FE00
F800
6000
ENDCHAR
STARTCHAR 201C
ENCODING 8220
SWIDTH 450 0
DWIDTH 25 0
BBX 22 15 1 26
BITMAP
07C03C
0FC0FC
1FC1FC
3E01F0
3C03E0
7C03C0
7C07C0
7C07C0
FC07C0
FF07F0
FF87F8
7F87F8
7F87F8
3F03F8
1E01E0
ENDCHAR
STARTCHAR 201D
ENCODING 8221
SWIDTH 504 0
DWIDTH 28 0
BBX 22 15 2 26
BITMAP
1F01F8
3F83FC
3FC3FC
3FC3FC
3FC3FC
0FC0FC
07C07C
07C07C
07807C
0F8078
0F00F8
1F01F0
FE07F0
FC07C0
700780
ENDCHAR
STARTCHAR 201E
ENCODING 8222
SWIDTH 450 0
DWIDTH 25 0
BBX 22 16 1 -9
BITMAP
0E00E0
3F01F8
3F83F8
7FC3FC
3FC3FC
3FC3FC
0FC0FC
07C07C
07807C
078078
0F8078
1F00F0
7F03F0
FE07E0
F807C0
600200
ENDCHAR
STARTCHAR 2020
ENCODING 8224
SWIDTH 468 0
DWIDTH 26 0
BBX 22 44 2 -6
BITMAP
007800
00FC00
00FC00
00FC00
00FC00
00FC00
00FC00
00FC00
00FC00
10FC3C
7FFFFC
FFFFFC
FFFFFC
FFFFF8
E07C00
00FC00
00FC00
00FC00
00FC00
00FC00
00FC00
00FC00
00FC00
00FC00
00FC00
00FC00
00FC00
00FC00
00FC00
00FC00
00FC00
00FC00
00FC00
00FC00
00FC00
00FC00
00FC00
00FC00
00FE00
00FE00
00FC00
007C00
007800
003000
ENDCHAR
STARTCHAR 2021
ENCODING 8225
SWIDTH 468 0
DWIDTH 26 0
BBX 22 44 2 -6
BITMAP
007800
00FC00
00FC00
00FC00
00FC00
00FC00
00FC00
00FC00
00FC00
10FC3C
7FFFFC
FFFFFC
FFFFFC
FFFFF8
E07C00
00FC00
00FC00
00FC00
00FC00
00FC00
00FC00
00FC00
00FC00
00FC00
00FC00
00FC00
00FC00
00FC00
007C00
007C00
7FFFFC
FFFFFC
FFFFFC
FFFFFC
FE7DF8
407C00
00FC00
00FC00
00FC00
00FC00
00FC00
00FC00
00FC00
00FC00
ENDCHAR
STARTCHAR 2022
ENCODING 8226
SWIDTH 288 0
DWIDTH 16 0
BBX 14 13 1 9
BITMAP
0780
1FE0
3FF0
7FF8
7FFC
FFFC
FFFC
FFFC
FFFC
7FF8
7FF8
3FF0
1FE0
ENDCHAR
STARTCHAR 2026
ENCODING 8230
SWIDTH 828 0
DWIDTH 46 0
BBX 42 9 2 -1
BITMAP
3C001E000F00
7E003F001F80
FF007F803FC0
FF007F803FC0
FF007F803FC0
FF007F803FC0
7F003F801FC0
7E003F001F80
080004000200
ENDCHAR
STARTCHAR 2030
ENCODING 8240
SWIDTH 1206 0
DWIDTH 67 0
BBX 63 41 2 -2
BITMAP
0000000180000000
00000003E0000000
07F80007E0000000
0FFE0007C0000000
1FFF000FC0000000
3F3F000F80000000
7E1F801F80000000
7C0F803F00000000
7C0F803E00000000
FC0FC07E00000000
FC0FC07C00000000
FC0FC0F800000000
FC0FC1F800000000
7C0FC1F000000000
7C0F83F000000000
7E1F87E000000000
3E1F87C000000000
3FFF0FC000000000
1FFE0F8000000000
0FFC1F0000000000
01E03F0000000000
00003E07F8003FC0
00007C1FFE00FFF0
0000FC3FFE01FFF8
0000F87E3F01F9F8
0001F87C1F83F0FC
0003F07C1F83E07C
0003E0FC0F87E07C
0007E0F80F87E07E
0007C0F80FC7E07E
000F80F80FC7E07E
001F80FC0F87E07E
001F00FC0F87E07C
003F007C0F83E07C
007E007E1F83F0FC
007C007E3F01F9F8
00FC003FFF01FFF8
00F8001FFE00FFF0
01F8000FF8007FC0
00F00001C0000600
0020000000000000
ENDCHAR
STARTCHAR 2039
ENCODING 8249
SWIDTH 306 0
DWIDTH 17 0
BBX 12 23 2 2
BITMAP
0040
0060
00F0
01F0
03E0
07E0
0FC0
1F80
3F80
3F00
7E00
FC00
7E00
7F00
3F00
1F80
0FC0
07C0
07E0
03F0
01F0
00F0
0040
ENDCHAR
STARTCHAR 203A
ENCODING 8250
SWIDTH 306 0
DWIDTH 17 0
BBX 12 23 2 2
BITMAP
2000
6000
F000
F800
7C00
7E00
3F00
1F80
1FC0
0FC0
07E0
03F0
07E0
0FE0
0FC0
1F80
3F00
7E00
7E00
FC00
F800
F000
6000
ENDCHAR
STARTCHAR 2044
ENCODING 8260
SWIDTH 360 0
DWIDTH 20 0
BBX 26 47 -3 -6
BITMAP
000003C0
000003C0
000007C0
00000780
00000F80
00000F00
00001F00
00001E00
00003E00
00003C00
00007C00
00007800
0000F800
0000F000
0001F000
0001E000
0003E000
0003C000
0007C000
00078000
000F8000
000F0000
001F0000
001E0000
003E0000
003C0000
007C0000
00780000
00F80000
00F00000
01F00000
01E00000
03E00000
03C00000
07C00000
07800000
0F800000
0F000000
1F000000
1E000000
3E000000
3C000000
7C000000
78000000
F8000000
F0000000
70000000
ENDCHAR
STARTCHAR 20AC
ENCODING 8364
SWIDTH 540 0
DWIDTH 30 0
BBX 29 39 1 -1
BITMAP
00007F80
0003FFF0
000FFFF8
003FFFF8
007FC3F0
00FF0070
01FC0000
03F80000
03F00000
07F00000
07E00000
07E00000
0FC00000
0FC00000
0FC00000
7FFFFF80
FFFFFF80
FFFFFF80
9F800000
1F800000
1F800000
7FFFFF80
FFFFFF80
FFFFFF80
8FC00000
0FC00000
0FE00000
07E00000
07F00000
07F00000
03F80000
01FC0000
01FE0020
00FF80F0
007FFFF8
003FFFF8
000FFFF0
0003FFE0
00000C00
ENDCHAR
STARTCHAR 2122
ENCODING 8482
SWIDTH 900 0
DWIDTH 50 0
BBX 42 21 5 16
BITMAP
3FFF0E000700
FFFF9F801F80
FFFF1F801F80
FFFF1FC03F80
03E01FC03F80
03E01FE07F80
03E01FE07F80
03E01FF0FF80
03E01FF0FF80
03E01FF8FF80
03E01FF9FF80
03E01F79EF80
03E01F7FEF80
03E01F7FEF80
03E01F3FCF80
03E01F3FCF80
03E01F3FCF80
03E01F1F8F80
03E01F1F8F80
03E01F0F8F80
03E00F8F8FC0
ENDCHAR
STARTCHAR 2126
ENCODING 8486
SWIDTH 846 0
DWIDTH 47 0
BBX 43 38 2 0
BITMAP
00007FC00000
0003FFF80000
000FFFFE0000
001FFFFF0000
007FC07FC000
00FF001FE000
01FC0007F000
01FC0007F000
03F80003F800
07F00001FC00
07F00001FC00
07E00000FC00
0FE00000FE00
0FE00000FE00
0FC00000FE00
0FC000007E00
0FC000007E00
0FC000007E00
0FC000007E00
0FC000007E00
0FC000007E00
0FE00000FE00
07E00000FC00
07E00000FC00
07E00000FC00
03F00001F800
03F00001F800
01F80003F000
60FC0007E0C0
E0FE000FC0E0
F07F001F81E0
F01F803F01E0
780FE0FE03C0
7803E0FC03C0
7FFFE0FFFFC0
7FFFE0FFFFC0
7FFFC07FFFC0
3FFF803FFF80
ENDCHAR
STARTCHAR 2202
ENCODING 8706
SWIDTH 522 0
DWIDTH 29 0
BBX 25 39 2 -1
BITMAP
07E00000
1FFE0000
1FFF8000
1FFFC000
1FBFE000
0007F000
0001F800
0000FC00
00007C00
00007E00
00003E00
00003E00
00003F00
00001F00
00001F00
007E1F00
01FF9F00
07FFFF80
0FFFFF80
1FE1FF80
3F807F80
3F001F80
7F001F00
7E001F00
7E001F00
FC003F00
FC003F00
FC003F00
FC007E00
FC007E00
7C007E00
7E00FC00
7E01F800
3F03F800
3FDFF000
1FFFE000
0FFFC000
03FF0000
00200000
ENDCHAR
STARTCHAR 2206
ENCODING 8710
SWIDTH 684 0
DWIDTH 38 0
BBX 34 36 2 0
BITMAP
0001E00000
0003F00000
0007F00000
0007F80000
0007F80000
000FFC0000
000FFC0000
001EFE0000
001E7E0000
001C7E0000
003C7F0000
003C3F0000
00783F8000
00781F8000
00F01FC000
00F00FC000
01E00FC000
01E00FE000
01C007E000
03C007F000
03C003F000
078003F800
078003F800
0F0001F800
0F0001FC00
1E0000FC00
1E0000FE00
1E00007E00
3C00007F00
3C00007F00
7800003F00
7FFEFFFF80
FFFFFFFF80
FFFFFFFFC0
FFFFFFFFC0
7FFFFFFF80
ENDCHAR
STARTCHAR 220F
ENCODING 8719
SWIDTH 702 0
DWIDTH 39 0
BBX 38 38 1 0
BITMAP
0000000004
7FFFFFFFFC
FFFFFFFFFC
FFFFFFFFFC
FFFFFFFFF8
F1F801FC00
01F801FC00
01F801FC00
01F801F800
00F801F800
00F801F800
00F801F800
00F801F800
00F801F800
00F801F800
00F801F800
00F801F800
00F801F800
00F801F800
00F801F800
00F801F800
00F801F800
00F801F800
00F801F800
00F801F800
00F801F800
00F801F800
00F801F800
00F801F800
00F801F800
00F801F800
00F801F800
01F801F800
01F801FC00
01F801FC00
01F801FC00
01F801FC00
01F000FC00
ENDCHAR
STARTCHAR 2211
ENCODING 8721
SWIDTH 648 0
DWIDTH 36 0
BBX 32 40 1 -3
BITMAP
3FFFFFF0
7FFFFFF8
7FFFFFF8
3FFFFFF8
3F800078
1FC00078
1FC00038
0FE0003C
0FE00018
07F00000
03F80000
03F80000
01FC0000
01FC0000
00FE0000
007E0000
007F0000
003F8000
003F8000
001FC000
001FC000
001F8000
001F8000
003F0000
007E0000
007E0000
00FC0000
00F80000
01F80000
03F00000
03F00003
07E00007
0FC00007
0FC0000F
1F80000F
3F00001F
3FFFFFFF
7FFFFFFE
7FFFFFFE
FFFFFFFE
ENDCHAR
STARTCHAR 2212
ENCODING 8722
SWIDTH 540 0
DWIDTH 30 0
BBX 24 5 3 12
BITMAP
000002
7FFFFF
FFFFFF
FFFFFF
FFFFFE
ENDCHAR
STARTCHAR 221A
ENCODING 8730
SWIDTH 558 0
DWIDTH 31 0
BBX 28 43 1 -2
BITMAP
000000F0
000000F0
000001F0
000001F0
000001F0
000001F0
000001E0
000003E0
000003E0
000003E0
000003E0
000003C0
000007C0
000007C0
038007C0
0FC007C0
3FC00780
FFE00F80
F7E00F80
43F00F80
03F00F80
01F00F00
01F80F00
01F81F00
00FC1F00
00FC1F00
007E1E00
007E1E00
003F3E00
003F3E00
001FBE00
001FBE00
000FFC00
000FFC00
0007FC00
0007FC00
0003FC00
0003F800
0003F800
0001F800
0001F800
0000F000
0000E000
ENDCHAR
STARTCHAR 221E
ENCODING 8734
SWIDTH 756 0
DWIDTH 42 0
BBX 38 17 2 6
BITMAP
07F8003F80
1FFC00FFE0
3FFF03FFF0
7FFF87FFF0
7C0FCFC0F8
F807FF0078
F003FE0078
F001FC007C
F000FC007C
F001FE007C
F803FF0078
F807FF80F8
7E1FCFE1F8
3FFF07FFF0
1FFE03FFE0
0FF800FFC0
03E0003E00
ENDCHAR
STARTCHAR 222B
ENCODING 8747
SWIDTH 324 0
DWIDTH 18 0
BBX 21 51 -1 -10
BITMAP
0007F0
001FF8
003FF8
003FF8
007CF0
0078E0
00F800
00F800
00F800
00F800
00F800
01F800
01F800
01F800
01F800
01F800
01F800
01F800
01F800
01F800
01F800
01F800
01F800
01F800
01F800
01F800
01F800
01F800
01F800
01F800
01F800
00F800
00F800
00F800
00F800
00F800
00F800
00F800
00F800
00F800
00F800
00F800
00F000
00F000
11F000
79E000
F9E000
FFC000
FFC000
FF0000
3C0000
ENDCHAR
STARTCHAR 2248
ENCODING 8776
SWIDTH 540 0
DWIDTH 30 0
BBX 29 20 0 4
BITMAP
00800000
0FF80030
3FFE0078
7FFFC0F8
7FFFF1F8
FC1FFFF8
7807FFF0
3000FFE0
00003F80
00000000
00000000
01C00000
0FF80030
3FFF0078
7FFFC0F8
7FFFF1F8
FC1FFFF8
7807FFF0
3000FFE0
00001F00
ENDCHAR
STARTCHAR 2260
ENCODING 8800
SWIDTH 540 0
DWIDTH 30 0
BBX 24 34 3 -3
BITMAP
000018
000038
000038
000078
0000F0
0000F0
0001E0
0001C0
0003C0
7FFFFE
7FFFFF
FFFFFF
FFFFFE
781E7C
001E00
003C00
003800
007800
007000
00F000
7FFFFF
FFFFFF
FFFFFF
FFFFFE
7F807C
070000
0F0000
0E0000
1E0000
1C0000
3C0000
380000
380000
080000
ENDCHAR
STARTCHAR 2264
ENCODING 8804
SWIDTH 540 0
DWIDTH 30 0
BBX 18 27 6 0
BITMAP
000E00
001F00
007F80
00FE00
01FC00
07F000
0FE000
1F8000
3F0000
FE0000
FC0000
7F0000
1F8000
0FE000
07F000
03FC00
00FE00
007F80
003F00
001E00
000000
000000
7FFF80
FFFFC0
FFFFC0
FFFF80
E00300
ENDCHAR
STARTCHAR 2265
ENCODING 8805
SWIDTH 540 0
DWIDTH 30 0
BBX 18 27 6 0
BITMAP
380000
7E0000
7F0000
3F8000
1FC000
07F000
03F800
00FC00
007F00
001F80
001FC0
003F00
00FC00
01F800
07F000
0FE000
3F8000
7F0000
7E0000
3C0000
000000
000000
FFFF00
FFFF80
FFFF80
FFFF80
200380
ENDCHAR
STARTCHAR 25CA
ENCODING 9674
SWIDTH 522 0
DWIDTH 29 0
BBX 25 38 2 0
BITMAP
003E0000
007F0000
00FF0000
00FF8000
01F78000
01E7C000
03E3C000
03C3E000
07C1E000
0781F000
0F80F000
0F007800
1F007800
1E003C00
3C003E00
7C001E00
78001F00
F8000F00
F0000F80
F8000F80
78000F00
7C001E00
3C003E00
3E003C00
1E007C00
1F007800
0F00F800
0F80F000
0781F000
07C1E000
03C3E000
01E3C000
01E78000
00F78000
00FF0000
007F0000
007E0000
003E0000
ENDCHAR
STARTCHAR F724
ENCODING 63268
SWIDTH 540 0
DWIDTH 30 0
BBX 24 41 3 -4
BITMAP
001800
003C00
003C00
003C00
003E00
01FFF0
07FFF8
1FFFFC
3FFFFE
3F1CFE
7E1C3E
7C1C38
7C1C00
7C1C00
7C1C00
7E1C00
7F1C00
3F9C00
3FFC00
1FFF00
0FFFE0
03FFF8
003FFC
001FFE
001CFE
001C7F
001C3F
001C3F
001C3F
101C3F
381C3E
7C1C3E
FE1C7E
FFFFFC
7FFFF8
3FFFF0
07FFC0
001C00
001C00
001C00
000C00
ENDCHAR
STARTCHAR F730
ENCODING 63280
SWIDTH 540 0
DWIDTH 30 0
BBX 26 28 2 -1
BITMAP
007F8000
03FFF000
07FFF800
0FFFFC00
1FFFFE00
3FE1FF00
3F807F00
7E003F80
7C001F80
7C000F80
F8000F80
F80007C0
F80007C0
F80007C0
F80007C0
F80007C0
F80007C0
FC000F80
7C000F80
7E001F80
7F003F00
3FC0FF00
3FFFFE00
1FFFFE00
0FFFFC00
07FFF000
01FFE000
000E0000
ENDCHAR
STARTCHAR F731
ENCODING 63281
SWIDTH 360 0
DWIDTH 20 0
BBX 16 27 2 0
BITMAP
0FE0
7FF0
FFE0
FFE0
F3E0
03E0
03E0
03E0
03E0
03E0
03E0
03E0
03E0
03E0
03E0
03E0
03E0
03E0
03E0
03E0
03E0
03E0
03E0
7FFF
FFFF
FFFF
FFFF
ENDCHAR
STARTCHAR F732
ENCODING 63282
SWIDTH 486 0
DWIDTH 27 0
BBX 25 27 1 0
BITMAP
00FF8000
03FFE000
07FFF000
1FFFF800
1F83FC00
3E01FC00
3E00FC00
1C00FC00
0000FC00
0000FC00
0000F800
0001F800
0001F000
0003E000
0007E000
000FC000
003F8000
007F0000
00FC0000
03F80000
0FF00000
1FC00000
7F01FF80
FFFFFF80
FFFFFF80
7FFFFF80
7FFFFF00
ENDCHAR
STARTCHAR F733
ENCODING 63283
SWIDTH 432 0
DWIDTH 24 0
BBX 20 36 1 -9
BITMAP
07FC00
1FFF00
3FFF80
7FFFC0
FC1FC0
F007E0
E007E0
6003E0
0003E0
0003E0
0007E0
0007C0
000FC0
001F80
01FF00
0FFC00
0FFF00
0FFF80
01FFC0
001FE0
0007E0
0003F0
0003F0
0001F0
0001F0
0001F0
0001F0
0003F0
0003F0
0007E0
000FE0
E07FC0
FFFF80
FFFE00
FFFC00
3FE000
ENDCHAR
STARTCHAR F734
ENCODING 63284
SWIDTH 504 0
DWIDTH 28 0
BBX 26 36 1 -9
BITMAP
0001F800
0003F000
0007F000
000FF000
001FF000
003FF000
003FF000
007DF000
00F9F000
01F9F000
03F1F000
07E1F000
07C1F000
0FC1F000
1F81F000
3F01F000
3E01F000
7E01F000
FC01F000
F801F3C0
FFFFFFC0
FFFFFFC0
FFFFFFC0
FFFFFF80
0001F000
0001F000
0001F000
0001F000
0001F000
0001F000
0001F000
0001F000
0001F000
0001F800
0001F800
0000F800
ENDCHAR
STARTCHAR F735
ENCODING 63285
SWIDTH 450 0
DWIDTH 25 0
BBX 22 36 1 -9
BITMAP
1FFFF8
1FFFF8
1FFFF8
1FFFF8
1FFFF0
1F0000
1E0000
3E0000
3E0000
3E0000
3E0000
3E0000
3E7800
3FFF80
3FFFC0
3FFFF0
001FF0
0007F8
0003F8
0001FC
0000FC
0000FC
00007C
00007C
00007C
0000FC
0000FC
0000FC
0001F8
0003F8
0007F0
701FE0
7FFFC0
FFFF80
7FFE00
1FF000
ENDCHAR
STARTCHAR F736
ENCODING 63286
SWIDTH 504 0
DWIDTH 28 0
BBX 24 37 2 -1
BITMAP
000020
0007F8
001FF8
007FF8
00FFC8
01FC00
03F000
07E000
0FC000
0F8000
1F8000
1F0000
3F0000
3E1F80
7E3FE0
7E7FF8
7C7FF8
7C41FC
7C00FE
FC007E
FC007E
FC003E
FC003F
FC003F
FC003F
FC003E
FC003E
7C003E
7E007E
7E007C
3F00FC
3F81F8
1FE7F8
0FFFF0
07FFE0
03FF80
001000
ENDCHAR
STARTCHAR F737
ENCODING 63287
SWIDTH 432 0
DWIDTH 24 0
BBX 24 36 -1 -9
BITMAP
FFFFFF
FFFFFF
FFFFFF
7FFFFF
7FFFFF
00003E
00007E
00007E
00007C
0000FC
0000F8
0001F8
0001F0
0001F0
0003E0
0003E0
0007E0
0007C0
000FC0
000F80
001F80
003F00
003F00
007E00
007E00
00FC00
01FC00
01F800
03F800
07F000
07F000
0FE000
1FE000
3FC000
1F8000
0F0000
ENDCHAR
STARTCHAR F738
ENCODING 63288
SWIDTH 522 0
DWIDTH 29 0
BBX 24 37 2 -1
BITMAP
000800
01FFC0
07FFF0
0FFFF8
1FF7FC
3F80FC
3F007E
3E007E
3E007E
3E007E
3F007E
3F007C
1F80FC
1FE1F8
0FFBF0
07FFC0
03FF80
01FFE0
07FFF8
0FCFFC
3F83FC
3F00FE
7E007F
7C003F
FC003F
FC001F
FC001F
FC001F
FC003F
7E003F
7E007F
7F00FE
3FE7FC
1FFFFC
0FFFF0
03FFC0
001800
ENDCHAR
STARTCHAR F739
ENCODING 63289
SWIDTH 504 0
DWIDTH 28 0
BBX 24 36 2 -9
BITMAP
00FF00
03FFC0
0FFFF0
1FFFF8
1F83F8
3F00FC
3E00FC
7E007E
7C007E
FC007E
FC003E
FC003E
FC003F
FC003F
FC003F
FC003F
7E003E
7E003E
7F803E
3FFC3E
1FFE7E
0FFC7C
03F87C
0000FC
0000F8
0001F8
0001F0
0003F0
0007E0
000FC0
003F80
00FF00
3FFE00
3FFC00
3FF000
1F8000
ENDCHAR
STARTCHAR F7A2
ENCODING 63394
SWIDTH 540 0
DWIDTH 30 0
BBX 24 38 3 -6
BITMAP
001C00
001E00
001E00
001E00
001E00
001F80
00FFF8
03FFFE
0FFFFF
1FFEFF
3FDE3F
3F9E1F
7F1E0C
7E1E00
FE1E00
FC1E00
FC1E00
FC1E00
FC1E00
FC1E00
FC1E00
FC1E00
FC1E00
FE1E00
7E1E00
7F1E0C
3F1E1F
3FDE3F
1FFEFF
0FFFFF
03FFFC
00FFF8
001F80
001E00
001E00
001E00
000E00
000400
ENDCHAR
STARTCHAR F8FF
ENCODING 63743
SWIDTH 828 0
DWIDTH 46 0
BBX 37 39 4 0
BITMAP
00001A0000
0000E1C000
0003002000
0004001000
0008001000
0010008800
001001E800
0010008800
0020016800
0020000800
0020000800
0020000800
0020000800
0020000800
0010000800
0010000800
0010000800
0008001000
0004001000
0003001000
0001001000
0001032000
000100C000
0001004000
0001004000
000F007000
0030000F00
03C0000040
0C00000020
1000000010
2000000010
2000000010
4000000008
4000000008
4000000008
4000000008
4000000008
8000000008
FFC0000018
ENDCHAR
STARTCHAR FB00
ENCODING 64256
SWIDTH 648 0
DWIDTH 36 0
BBX 38 40 0 0
BITMAP
001FE00FF0
007FF03FF8
00FFF87FFC
01FFF0FFFC
03F8F0FC78
03F021F810
03E001F000
07E001F000
07E003F000
07E003F000
07E003F000
07E003F000
07E003F000
1FFFFFFFE0
7FFFFFFFE0
FFFFFFFFE0
FFFFFFFFE0
FFFFFFFE00
07E003F000
07E003F000
07E003F000
07E003F000
07E003F000
07E003F000
07E003F000
07E003F000
07E003F000
07E003F000
07E003F000
07E003F000
07E003F000
07E003F000
07E003F000
07E003F000
07E003F000
07E003F000
07E003F000
07E003F000
07E003F800
03F001F800
ENDCHAR
STARTCHAR FB01
ENCODING 64257
SWIDTH 576 0
DWIDTH 32 0
BBX 29 40 0 0
BITMAP
0007FE00
003FFF80
007FFFC0
00FFFFE0
01FC3FE0
03F00FE0
03E007C0
07E00200
07E00000
07E00000
07E00000
07E00000
07E00000
1FFFFFC0
7FFFFFF0
FFFFFFF0
FFFFFFF0
FFFFFFF0
07E003F0
07E003F0
07E003F0
07E003F0
07E003F0
07E003F0
07E003F0
07E003F0
07E003F0
07E003F0
07E003F0
07E003F0
07E003F0
07E003F0
07E003F0
07E003F0
07E003F0
07E003F0
07E003F0
07E003F8
07E003F8
03F001F8
ENDCHAR
STARTCHAR FB02
ENCODING 64258
SWIDTH 594 0
DWIDTH 33 0
BBX 31 42 0 0
BITMAP
00000060
000001F8
001FE1FC
007FF1FC
00FFF9FC
01FFF1FC
03F8F1FC
03F021FC
03E001F8
07E001F8
07E001F8
07E001F8
07E001F8
07E001F8
07E001F8
1FFFC1F8
7FFFC1F8
FFFFC1F8
FFFFC1F8
FFFE01F8
07E001F8
07E001F8
07E001F8
07E001F8
07E001F8
07E001F8
07E001F8
07E001F8
07E001F8
07E001F8
07E001F8
07E001F8
07E001F8
07E001F8
07E001F8
07E001F8
07E001F8
07E001FC
07E001FC
07E001FC
07E000FC
03F000FE
ENDCHAR
STARTCHAR FB03
ENCODING 64259
SWIDTH 882 0
DWIDTH 49 0
BBX 47 40 0 0
BITMAP
001FE003FF00
007FF00FFFE0
00FFF83FFFF0
01FFF07FFFF0
03F8F0FE0FF0
03F020F803F0
03E001F801F0
07E001F00100
07E001F00000
07E003F00000
07E003F00000
07E003F00000
07E003F00000
1FFFFFFFFFF0
7FFFFFFFFFF8
FFFFFFFFFFFC
FFFFFFFFFFFC
FFFFFFFFFFFC
07E003F001FC
07E003F001F8
07E003F001F8
07E003F001F8
07E003F001F8
07E003F001F8
07E003F001F8
07E003F001F8
07E003F001F8
07E003F001F8
07E003F001F8
07E003F001F8
07E003F001F8
07E003F001F8
07E003F001F8
07E003F001F8
07E003F001F8
07E003F001FC
07E003F001FC
07E003F001FC
07E003F800FC
03F001F800FE
ENDCHAR
STARTCHAR FB04
ENCODING 64260
SWIDTH 918 0
DWIDTH 51 0
BBX 48 42 0 0
BITMAP
000000000030
0000000000FC
001FE00FF0FE
007FF03FF8FE
00FFF87FFCFE
01FFF0FFFCFE
03F8F0FC78FE
03F021F810FE
03E001F000FE
07E001F000FE
07E003F000FE
07E003F0007E
07E003F0007E
07E003F0007C
07E003F0007E
1FFFFFFFE07C
7FFFFFFFE07C
FFFFFFFFE07C
FFFFFFFFE07C
FFFFFFFE007C
07E003F0007C
07E003F0007C
07E003F0007C
07E003F0007C
07E003F0007C
07E003F0007C
07E003F0007C
07E003F0007C
07E003F0007C
07E003F0007C
07E003F0007C
07E003F0007C
07E003F0007C
07E003F000FC
07E003F000FE
07E003F000FE
07E003F000FE
07E003F000FE
07E003F000FE
07E003F0007E
07E003F8007E
03F001F8003F
ENDCHAR
STARTCHAR FB06
ENCODING 64262
SWIDTH 828 0
DWIDTH 46 0
BBX 43 38 2 -1
BITMAP
000001F00000
00000FFE0000
00003FFF8000
00007E3FC000
0000780FC000
0000F00FE000
0000E00FE000
0000E00FE000
0000E00FE000
0000E007E000
01FEE03FFFE0
0FFFE0FFFFE0
1FFFE0FFFFE0
3FFFF0FFFFE0
7F0FF0F7FE00
7E03F007E000
7C01E007E000
FC008007E000
FC000007C000
7E000007C000
7F800007C000
7FF00007C000
3FFF0007C000
3FFFC007C000
0FFFE007C000
03FFF007C000
003FF007C000
0007F007C000
0003F007E000
1001F807E000
7001F007E000
F801F007E000
FE03F007F060
FFFFE003FDE0
FFFFC003FFE0
7FFF8001FFE0
1FFE00007FC0
006000000600
ENDCHAR
ENDFONT
